<?xml version="1.0" encoding="UTF-8"?>
<!DOCTYPE svg PUBLIC "-//W3C//DTD SVG 1.1//EN" "http://www.w3.org/Graphics/SVG/1.1/DTD/svg11.dtd">
<svg xmlns="http://www.w3.org/2000/svg" version="1.1" width="661px" height="524px" style="shape-rendering:geometricPrecision; text-rendering:geometricPrecision; image-rendering:optimizeQuality; fill-rule:evenodd; clip-rule:evenodd" xmlns:xlink="http://www.w3.org/1999/xlink">
<g><path style="opacity:1" fill="#eef1f6" d="M -0.5,-0.5 C 18.1667,-0.5 36.8333,-0.5 55.5,-0.5C 55.5,2.16667 55.5,4.83333 55.5,7.5C 52.8333,7.5 50.1667,7.5 47.5,7.5C 47.5,10.1667 47.5,12.8333 47.5,15.5C 44.8333,15.5 42.1667,15.5 39.5,15.5C 38.8333,18.1667 38.1667,20.8333 37.5,23.5C 34.5,23.5 31.5,23.5 28.5,23.5C 28.5,26.8333 26.8333,28.5 23.5,28.5C 23.6621,30.5273 23.4955,32.5273 23,34.5C 20.8333,35.3333 19.3333,36.8333 18.5,39C 17.552,39.4828 16.552,39.6495 15.5,39.5C 15.5,42.1667 15.5,44.8333 15.5,47.5C 13.8762,47.6399 12.7096,46.9733 12,45.5C 10.951,47.1066 9.45101,47.7733 7.5,47.5C 6.5,51.8333 3.83333,54.5 -0.5,55.5C -0.5,36.8333 -0.5,18.1667 -0.5,-0.5 Z"/></g>
<g><path style="opacity:1" fill="#f0f3f5" d="M 55.5,-0.5 C 82.1667,-0.5 108.833,-0.5 135.5,-0.5C 130.469,4.41624 124.802,8.74957 118.5,12.5C 117.614,13.325 117.281,14.325 117.5,15.5C 115.5,15.8333 113.5,16.1667 111.5,16.5C 111.5,17.8333 111.5,19.1667 111.5,20.5C 109.345,20.372 107.345,20.872 105.5,22C 101.806,26.1713 98.1392,30.338 94.5,34.5C 92.5,35.5 90.5,36.5 88.5,37.5C 77.9665,50.5869 66.4665,62.5869 54,73.5C 52.872,75.3453 52.372,77.3453 52.5,79.5C 50.8333,79.5 49.1667,79.5 47.5,79.5C 47.3255,84.6927 44.9922,88.6927 40.5,91.5C 39.8216,96.8649 37.1549,100.865 32.5,103.5C 31.52,106.086 31.1866,108.753 31.5,111.5C 29.712,111.215 28.0453,111.548 26.5,112.5C 25.4314,115.539 24.2647,118.539 23,121.5C 20.0899,122.45 18.9232,124.45 19.5,127.5C 18.1667,127.5 16.8333,127.5 15.5,127.5C 15.5,130.167 15.5,132.833 15.5,135.5C 14.5,135.5 13.5,135.5 12.5,135.5C 11.0885,138.675 9.92186,142.009 9,145.5C 6.28611,150.478 3.11944,155.144 -0.5,159.5C -0.5,124.833 -0.5,90.1667 -0.5,55.5C 3.83333,54.5 6.5,51.8333 7.5,47.5C 9.45101,47.7733 10.951,47.1066 12,45.5C 12.7096,46.9733 13.8762,47.6399 15.5,47.5C 15.5,44.8333 15.5,42.1667 15.5,39.5C 16.552,39.6495 17.552,39.4828 18.5,39C 19.3333,36.8333 20.8333,35.3333 23,34.5C 23.4955,32.5273 23.6621,30.5273 23.5,28.5C 26.8333,28.5 28.5,26.8333 28.5,23.5C 31.5,23.5 34.5,23.5 37.5,23.5C 38.1667,20.8333 38.8333,18.1667 39.5,15.5C 42.1667,15.5 44.8333,15.5 47.5,15.5C 47.5,12.8333 47.5,10.1667 47.5,7.5C 50.1667,7.5 52.8333,7.5 55.5,7.5C 55.5,4.83333 55.5,2.16667 55.5,-0.5 Z"/></g>
<g><path style="opacity:1" fill="#f7f7f7" d="M 135.5,-0.5 C 269.167,-0.5 402.833,-0.5 536.5,-0.5C 538.396,0.480521 540.396,1.48052 542.5,2.5C 543.386,3.32496 543.719,4.32496 543.5,5.5C 552.916,9.73474 561.25,15.7347 568.5,23.5C 570.5,24.5 572.5,25.5 574.5,26.5C 575.452,28.0453 575.785,29.712 575.5,31.5C 577.288,31.2148 578.955,31.5481 580.5,32.5C 582.091,35.2557 584.424,37.089 587.5,38C 588.155,39.4866 589.155,40.6533 590.5,41.5C 591.466,43.396 591.799,45.396 591.5,47.5C 593.5,47.5 595.5,47.5 597.5,47.5C 597.303,51.8063 599.303,53.8063 603.5,53.5C 603.343,54.8734 603.51,56.2068 604,57.5C 606.564,60.5842 609.73,62.5842 613.5,63.5C 614.639,66.0037 615.306,68.6703 615.5,71.5C 616.833,71.5 618.167,71.5 619.5,71.5C 619.343,72.8734 619.51,74.2068 620,75.5C 623.538,80.0007 627.371,84.1674 631.5,88C 630.692,88.3076 630.025,88.8076 629.5,89.5C 632.648,92.4012 635.815,95.4012 639,98.5C 639.498,101.817 639.665,105.15 639.5,108.5C 642.01,109.783 644.677,110.783 647.5,111.5C 648.121,117.453 650.621,122.453 655,126.5C 654.403,131.136 656.236,134.136 660.5,135.5C 660.5,264.833 660.5,394.167 660.5,523.5C 568.167,523.5 475.833,523.5 383.5,523.5C 383.5,521.833 383.5,520.167 383.5,518.5C 387.524,518.503 391.524,518.836 395.5,519.5C 402.186,518.493 408.853,517.493 415.5,516.5C 415.5,514.833 415.5,513.167 415.5,511.5C 418.167,511.5 420.833,511.5 423.5,511.5C 423.5,510.167 423.5,508.833 423.5,507.5C 426.167,507.5 428.833,507.5 431.5,507.5C 431.5,505.833 431.5,504.167 431.5,502.5C 434.167,502.5 436.833,502.5 439.5,502.5C 439.5,501.5 439.5,500.5 439.5,499.5C 442.167,499.5 444.833,499.5 447.5,499.5C 447.5,498.167 447.5,496.833 447.5,495.5C 450.167,495.5 452.833,495.5 455.5,495.5C 455.5,494.5 455.5,493.5 455.5,492.5C 458.167,492.5 460.833,492.5 463.5,492.5C 463.5,491.5 463.5,490.5 463.5,489.5C 466.167,489.5 468.833,489.5 471.5,489.5C 471.5,487.5 471.5,485.5 471.5,483.5C 474.167,483.5 476.833,483.5 479.5,483.5C 479.5,484.833 479.5,486.167 479.5,487.5C 482.167,487.5 484.833,487.5 487.5,487.5C 487.5,488.833 487.5,490.167 487.5,491.5C 490.5,491.5 493.5,491.5 496.5,491.5C 496.33,490.178 496.663,489.011 497.5,488C 499.5,487.667 501.5,487.333 503.5,487C 508.692,481.038 514.192,475.538 520,470.5C 520.595,469.101 520.428,467.768 519.5,466.5C 519.977,465.522 520.643,464.689 521.5,464C 523.38,464.51 525.213,464.343 527,463.5C 526.848,461.924 526.015,460.591 524.5,459.5C 525.714,457.931 527.381,457.098 529.5,457C 530.833,456.333 530.833,455.667 529.5,455C 536.926,451.68 544.26,451.846 551.5,455.5C 553.289,452.314 554.622,449.148 555.5,446C 560.827,445.011 565.493,442.678 569.5,439C 569.167,438.667 568.833,438.333 568.5,438C 574.986,435.94 574.652,434.773 567.5,434.5C 567.5,433.5 567.5,432.5 567.5,431.5C 568.552,431.649 569.552,431.483 570.5,431C 569.663,429.989 569.33,428.822 569.5,427.5C 572.635,427.548 574.302,429.215 574.5,432.5C 576.747,431.626 579.08,431.292 581.5,431.5C 581.544,427.314 581.877,423.147 582.5,419C 582.66,416.53 581.993,414.364 580.5,412.5C 582.058,410.446 584.058,408.946 586.5,408C 582.587,407.113 578.92,407.613 575.5,409.5C 573.559,409.196 571.893,408.363 570.5,407C 577.356,405.866 584.356,405.033 591.5,404.5C 593.592,402.654 594.926,400.321 595.5,397.5C 591.167,396.833 586.833,396.167 582.5,395.5C 582.931,394.707 583.265,393.873 583.5,393C 581.646,391.477 580.146,389.644 579,387.5C 576.092,387.092 573.592,385.925 571.5,384C 572.793,383.51 574.127,383.343 575.5,383.5C 576.041,380.348 575.041,377.848 572.5,376C 573.308,375.692 573.975,375.192 574.5,374.5C 572.5,372.5 570.5,370.5 568.5,368.5C 569.325,367.614 570.325,367.281 571.5,367.5C 571.5,364.833 571.5,362.167 571.5,359.5C 572.833,359.5 574.167,359.5 575.5,359.5C 575.5,356.833 575.5,354.167 575.5,351.5C 568.992,351.408 568.992,350.742 575.5,349.5C 575.5,348.167 575.5,346.833 575.5,345.5C 569.262,344.965 569.095,343.298 575,340.5C 575.483,339.552 575.649,338.552 575.5,337.5C 564.833,336.833 564.833,336.167 575.5,335.5C 575.5,334.167 575.5,332.833 575.5,331.5C 572.833,331.5 570.167,331.5 567.5,331.5C 567.5,329.833 567.5,328.167 567.5,326.5C 570.167,325.833 572.833,325.167 575.5,324.5C 575.677,322.019 574.677,320.186 572.5,319C 575.207,317.136 576.041,314.636 575,311.5C 572.75,310.292 570.583,308.959 568.5,307.5C 570.336,306.081 572.336,304.914 574.5,304C 572.19,303.503 569.857,303.337 567.5,303.5C 567.5,298.167 567.5,292.833 567.5,287.5C 569.288,287.785 570.955,287.452 572.5,286.5C 570.49,285.935 568.824,284.935 567.5,283.5C 569.638,282.256 571.638,280.756 573.5,279C 571.564,278.187 569.564,277.687 567.5,277.5C 567.5,276.5 567.5,275.5 567.5,274.5C 570.167,275.167 572.833,275.833 575.5,276.5C 575.5,275.5 575.5,274.5 575.5,273.5C 573.436,273.313 571.436,272.813 569.5,272C 570.448,271.517 571.448,271.351 572.5,271.5C 573.167,266.167 573.833,260.833 574.5,255.5C 570.253,255.822 566.253,254.989 562.5,253C 564.059,252.02 565.726,251.187 567.5,250.5C 566.619,249.029 565.286,248.196 563.5,248C 564.684,246.82 565.351,245.32 565.5,243.5C 565.351,241.68 564.684,240.18 563.5,239C 566.631,235.377 570.631,233.877 575.5,234.5C 575.64,232.876 574.973,231.71 573.5,231C 575.107,229.951 575.773,228.451 575.5,226.5C 572.427,225.801 569.427,224.801 566.5,223.5C 565.52,220.914 565.187,218.247 565.5,215.5C 564.5,215.5 563.5,215.5 562.5,215.5C 561.937,212.626 560.937,209.96 559.5,207.5C 558.167,207.5 556.833,207.5 555.5,207.5C 555.5,205.5 555.5,203.5 555.5,201.5C 551.534,202.162 547.534,202.495 543.5,202.5C 543.5,197.5 543.5,192.5 543.5,187.5C 539.5,187.5 535.5,187.5 531.5,187.5C 531.5,183.5 531.5,179.5 531.5,175.5C 532.978,175.762 534.311,175.429 535.5,174.5C 532.914,173.52 530.247,173.187 527.5,173.5C 527.5,172.167 527.5,170.833 527.5,169.5C 532.833,170.167 538.167,170.833 543.5,171.5C 543.5,170.167 543.5,168.833 543.5,167.5C 535.472,167.831 527.472,167.498 519.5,166.5C 518.568,164.205 517.735,161.871 517,159.5C 516,162.167 515,164.833 514,167.5C 513.333,165.5 512.667,163.5 512,161.5C 511.502,164.482 511.335,167.482 511.5,170.5C 509.641,170.539 508.308,169.706 507.5,168C 508.684,166.82 509.351,165.32 509.5,163.5C 508.91,158.509 508.41,153.509 508,148.5C 507.261,147.426 506.261,146.759 505,146.5C 502.065,148.192 498.898,148.858 495.5,148.5C 495.5,147.167 495.5,145.833 495.5,144.5C 488.677,145.024 484.677,144.691 483.5,143.5C 483.491,135.432 482.824,127.432 481.5,119.5C 478.167,119.5 474.833,119.5 471.5,119.5C 471.5,118.167 471.5,116.833 471.5,115.5C 466.167,114.833 460.833,114.167 455.5,113.5C 455.66,111.801 455.494,110.134 455,108.5C 451.018,104.378 446.185,101.544 440.5,100C 439.483,98.9505 439.316,97.7839 440,96.5C 444.027,97.9496 447.86,99.6163 451.5,101.5C 453.923,101.406 456.256,100.906 458.5,100C 460.037,98.8904 460.703,97.3904 460.5,95.5C 458.833,95.5 457.167,95.5 455.5,95.5C 455.5,94.1667 455.5,92.8333 455.5,91.5C 450.172,91.8324 444.838,92.1657 439.5,92.5C 428.726,91.82 418.06,90.4866 407.5,88.5C 407.5,85.5 407.5,82.5 407.5,79.5C 406.167,79.5 404.833,79.5 403.5,79.5C 403.5,76.8333 403.5,74.1667 403.5,71.5C 390.163,71.3334 376.829,71.5001 363.5,72C 362.692,73.7058 361.359,74.5391 359.5,74.5C 359.509,72.6916 359.009,71.0249 358,69.5C 355.991,67.9895 354.158,66.3229 352.5,64.5C 344.176,63.4793 335.842,63.4793 327.5,64.5C 327.5,62.8333 327.5,61.1667 327.5,59.5C 316.679,61.2058 306.012,63.5392 295.5,66.5C 295.5,67.5 295.5,68.5 295.5,69.5C 287.568,70.8243 279.568,71.4909 271.5,71.5C 271.5,72.5 271.5,73.5 271.5,74.5C 267.515,74.6294 266.182,76.4628 267.5,80C 266.495,81.5067 265.162,82.6733 263.5,83.5C 258.208,84.4948 252.875,84.8282 247.5,84.5C 247.5,85.5 247.5,86.5 247.5,87.5C 244.833,87.5 242.167,87.5 239.5,87.5C 239.5,90.1667 239.5,92.8333 239.5,95.5C 238.448,95.3505 237.448,95.5172 236.5,96C 235.667,98.1667 234.167,99.6667 232,100.5C 229.281,99.5562 226.448,99.2229 223.5,99.5C 223.628,101.655 223.128,103.655 222,105.5C 219.457,107.342 217.29,109.509 215.5,112C 212.854,112.497 210.187,112.664 207.5,112.5C 207.5,114.833 207.5,117.167 207.5,119.5C 206.127,119.343 204.793,119.51 203.5,120C 200.369,123.623 196.369,125.123 191.5,124.5C 191.5,122.833 191.5,121.167 191.5,119.5C 188.833,119.5 186.167,119.5 183.5,119.5C 183.5,121.167 183.5,122.833 183.5,124.5C 180.833,124.5 178.167,124.5 175.5,124.5C 175.5,126.167 175.5,127.833 175.5,129.5C 172.833,129.5 170.167,129.5 167.5,129.5C 167.5,131.5 167.5,133.5 167.5,135.5C 164.833,135.5 162.167,135.5 159.5,135.5C 159.5,136.833 159.5,138.167 159.5,139.5C 156.833,139.5 154.167,139.5 151.5,139.5C 151.5,141.167 151.5,142.833 151.5,144.5C 146.167,144.167 140.833,143.833 135.5,143.5C 135.5,146.167 135.5,148.833 135.5,151.5C 136.552,151.351 137.552,151.517 138.5,152C 136.393,153.264 135.393,155.097 135.5,157.5C 131.37,157.534 127.37,158.201 123.5,159.5C 124.34,163.911 123.173,167.577 120,170.5C 119.506,172.134 119.34,173.801 119.5,175.5C 118.167,175.5 116.833,175.5 115.5,175.5C 115.299,178.728 115.633,181.895 116.5,185C 113.732,190.156 110.399,194.822 106.5,199C 100.975,202.329 95.3088,204.496 89.5,205.5C 93.2435,208.193 92.5768,209.86 87.5,210.5C 87.2267,212.451 87.8934,213.951 89.5,215C 88.062,215.219 86.7287,215.719 85.5,216.5C 86.5312,217.7 87.3645,219.034 88,220.5C 91.4079,218.777 93.7413,219.777 95,223.5C 97.2798,222.914 99.4465,222.08 101.5,221C 100.643,220.311 99.9767,219.478 99.5,218.5C 102.252,216.664 105.252,215.664 108.5,215.5C 108.5,218.167 108.5,220.833 108.5,223.5C 109.5,223.5 110.5,223.5 111.5,223.5C 111.351,224.552 111.517,225.552 112,226.5C 118.146,229.758 117.98,232.425 111.5,234.5C 111.5,236.167 111.5,237.833 111.5,239.5C 110.167,239.5 108.833,239.5 107.5,239.5C 107.193,245.093 107.527,250.593 108.5,256C 107.667,258.167 106.167,259.667 104,260.5C 103.517,261.448 103.351,262.448 103.5,263.5C 100.833,263.5 98.1667,263.5 95.5,263.5C 95.5,264.833 95.5,266.167 95.5,267.5C 98.1667,267.5 100.833,267.5 103.5,267.5C 103.5,268.5 103.5,269.5 103.5,270.5C 106.187,270.336 108.854,270.503 111.5,271C 109.527,271.495 107.527,271.662 105.5,271.5C 105.5,274.167 105.5,276.833 105.5,279.5C 102.102,279.18 98.7683,279.513 95.5,280.5C 106.087,282.136 106.087,283.136 95.5,283.5C 95.5,284.833 95.5,286.167 95.5,287.5C 98.1667,287.5 100.833,287.5 103.5,287.5C 103.5,290.167 103.5,292.833 103.5,295.5C 102.167,295.5 100.833,295.5 99.5,295.5C 99.5,298.167 99.5,300.833 99.5,303.5C 103.514,303.334 107.514,303.501 111.5,304C 108.832,304.567 106.166,305.067 103.5,305.5C 103.5,307.5 103.5,309.5 103.5,311.5C 101.833,311.5 100.167,311.5 98.5,311.5C 98.5,314.167 98.5,316.833 98.5,319.5C 100.167,319.5 101.833,319.5 103.5,319.5C 103.5,321.167 103.5,322.833 103.5,324.5C 114.167,324.833 114.167,325.167 103.5,325.5C 103.5,331.5 103.5,337.5 103.5,343.5C 100.833,343.5 98.1667,343.5 95.5,343.5C 95.5,346.167 95.5,348.833 95.5,351.5C 97.5,351.5 99.5,351.5 101.5,351.5C 101.5,354.167 101.5,356.833 101.5,359.5C 99.5,359.833 97.5,360.167 95.5,360.5C 95.5,362.5 95.5,364.5 95.5,366.5C 98.4869,366.998 101.487,367.498 104.5,368C 103.663,369.011 103.33,370.178 103.5,371.5C 105.927,371.523 108.26,372.023 110.5,373C 108.913,373.862 107.246,374.529 105.5,375C 106.444,377.719 106.777,380.552 106.5,383.5C 108.167,383.5 109.833,383.5 111.5,383.5C 111.335,387.182 111.501,390.848 112,394.5C 114.167,395.333 115.667,396.833 116.5,399C 118.81,399.497 121.143,399.663 123.5,399.5C 123.5,402.167 123.5,404.833 123.5,407.5C 124.833,407.5 126.167,407.5 127.5,407.5C 127.5,409.167 127.5,410.833 127.5,412.5C 130.167,412.5 132.833,412.5 135.5,412.5C 135.338,414.527 135.505,416.527 136,418.5C 138.167,419.333 139.667,420.833 140.5,423C 139.556,425.719 139.223,428.552 139.5,431.5C 142.167,431.5 144.833,431.5 147.5,431.5C 147.5,434.167 147.5,436.833 147.5,439.5C 148.833,439.5 150.167,439.5 151.5,439.5C 151.5,444.833 151.5,450.167 151.5,455.5C 154.833,455.5 158.167,455.5 161.5,455.5C 161.927,458.788 161.26,461.788 159.5,464.5C 161.287,465.316 162.954,466.316 164.5,467.5C 162.954,468.684 161.287,469.684 159.5,470.5C 162.086,471.48 164.753,471.813 167.5,471.5C 167.351,472.552 167.517,473.552 168,474.5C 170.167,475.333 171.667,476.833 172.5,479C 173.448,479.483 174.448,479.649 175.5,479.5C 175.5,480.833 175.5,482.167 175.5,483.5C 178.167,483.5 180.833,483.5 183.5,483.5C 183.238,482.022 183.571,480.689 184.5,479.5C 185.48,482.086 185.813,484.753 185.5,487.5C 187.5,487.5 189.5,487.5 191.5,487.5C 191.5,489.5 191.5,491.5 191.5,493.5C 195.426,493.232 199.093,494.065 202.5,496C 201.584,496.374 200.75,496.874 200,497.5C 199.505,499.473 199.338,501.473 199.5,503.5C 202.272,503.78 204.772,503.113 207,501.5C 214.922,503.125 223.089,504.125 231.5,504.5C 228.914,505.48 226.247,505.813 223.5,505.5C 223.5,506.833 223.5,508.167 223.5,509.5C 228.833,510.167 234.167,510.833 239.5,511.5C 239.5,510.167 239.5,508.833 239.5,507.5C 242.167,507.5 244.833,507.5 247.5,507.5C 247.5,508.5 247.5,509.5 247.5,510.5C 255.068,510.743 255.734,512.076 249.5,514.5C 248.167,515.167 248.167,515.833 249.5,516.5C 252.234,518.371 255.234,519.371 258.5,519.5C 258.5,520.833 258.5,522.167 258.5,523.5C 189.167,523.5 119.833,523.5 50.5,523.5C 48.2237,520.239 46.8903,516.572 46.5,512.5C 45.3112,511.571 43.9778,511.238 42.5,511.5C 42.7422,507.083 40.7422,504.417 36.5,503.5C 31.2371,495.31 26.7371,486.643 23,477.5C 21.4875,474.143 18.9875,472.143 15.5,471.5C 16.5822,466.894 14.9155,463.894 10.5,462.5C 8.62721,457.548 6.96054,452.548 5.5,447.5C 3.31455,447.296 1.31455,446.63 -0.5,445.5C -0.5,350.167 -0.5,254.833 -0.5,159.5C 3.11944,155.144 6.28611,150.478 9,145.5C 9.92186,142.009 11.0885,138.675 12.5,135.5C 13.5,135.5 14.5,135.5 15.5,135.5C 15.5,132.833 15.5,130.167 15.5,127.5C 16.8333,127.5 18.1667,127.5 19.5,127.5C 18.9232,124.45 20.0899,122.45 23,121.5C 24.2647,118.539 25.4314,115.539 26.5,112.5C 28.0453,111.548 29.712,111.215 31.5,111.5C 31.1866,108.753 31.52,106.086 32.5,103.5C 37.1549,100.865 39.8216,96.8649 40.5,91.5C 44.9922,88.6927 47.3255,84.6927 47.5,79.5C 49.1667,79.5 50.8333,79.5 52.5,79.5C 52.372,77.3453 52.872,75.3453 54,73.5C 66.4665,62.5869 77.9665,50.5869 88.5,37.5C 90.5,36.5 92.5,35.5 94.5,34.5C 98.1392,30.338 101.806,26.1713 105.5,22C 107.345,20.872 109.345,20.372 111.5,20.5C 111.5,19.1667 111.5,17.8333 111.5,16.5C 113.5,16.1667 115.5,15.8333 117.5,15.5C 117.281,14.325 117.614,13.325 118.5,12.5C 124.802,8.74957 130.469,4.41624 135.5,-0.5 Z"/></g>
<g><path style="opacity:1" fill="#eff3f4" d="M 536.5,-0.5 C 577.833,-0.5 619.167,-0.5 660.5,-0.5C 660.5,44.8333 660.5,90.1667 660.5,135.5C 656.236,134.136 654.403,131.136 655,126.5C 650.621,122.453 648.121,117.453 647.5,111.5C 644.677,110.783 642.01,109.783 639.5,108.5C 639.665,105.15 639.498,101.817 639,98.5C 635.815,95.4012 632.648,92.4012 629.5,89.5C 630.025,88.8076 630.692,88.3076 631.5,88C 627.371,84.1674 623.538,80.0007 620,75.5C 619.51,74.2068 619.343,72.8734 619.5,71.5C 618.167,71.5 616.833,71.5 615.5,71.5C 615.306,68.6703 614.639,66.0037 613.5,63.5C 609.73,62.5842 606.564,60.5842 604,57.5C 603.51,56.2068 603.343,54.8734 603.5,53.5C 599.303,53.8063 597.303,51.8063 597.5,47.5C 595.5,47.5 593.5,47.5 591.5,47.5C 591.799,45.396 591.466,43.396 590.5,41.5C 589.155,40.6533 588.155,39.4866 587.5,38C 584.424,37.089 582.091,35.2557 580.5,32.5C 578.955,31.5481 577.288,31.2148 575.5,31.5C 575.785,29.712 575.452,28.0453 574.5,26.5C 572.5,25.5 570.5,24.5 568.5,23.5C 561.25,15.7347 552.916,9.73474 543.5,5.5C 543.719,4.32496 543.386,3.32496 542.5,2.5C 540.396,1.48052 538.396,0.480521 536.5,-0.5 Z"/></g>
<g><path style="opacity:1" fill="#fafafa" d="M 383.5,523.5 C 341.833,523.5 300.167,523.5 258.5,523.5C 258.5,522.167 258.5,520.833 258.5,519.5C 255.234,519.371 252.234,518.371 249.5,516.5C 248.167,515.833 248.167,515.167 249.5,514.5C 255.734,512.076 255.068,510.743 247.5,510.5C 247.5,509.5 247.5,508.5 247.5,507.5C 244.833,507.5 242.167,507.5 239.5,507.5C 239.5,508.833 239.5,510.167 239.5,511.5C 234.167,510.833 228.833,510.167 223.5,509.5C 223.5,508.167 223.5,506.833 223.5,505.5C 226.247,505.813 228.914,505.48 231.5,504.5C 223.089,504.125 214.922,503.125 207,501.5C 204.772,503.113 202.272,503.78 199.5,503.5C 199.338,501.473 199.505,499.473 200,497.5C 200.75,496.874 201.584,496.374 202.5,496C 199.093,494.065 195.426,493.232 191.5,493.5C 191.5,491.5 191.5,489.5 191.5,487.5C 189.5,487.5 187.5,487.5 185.5,487.5C 185.813,484.753 185.48,482.086 184.5,479.5C 183.571,480.689 183.238,482.022 183.5,483.5C 180.833,483.5 178.167,483.5 175.5,483.5C 175.5,482.167 175.5,480.833 175.5,479.5C 174.448,479.649 173.448,479.483 172.5,479C 171.667,476.833 170.167,475.333 168,474.5C 167.517,473.552 167.351,472.552 167.5,471.5C 164.753,471.813 162.086,471.48 159.5,470.5C 161.287,469.684 162.954,468.684 164.5,467.5C 162.954,466.316 161.287,465.316 159.5,464.5C 161.26,461.788 161.927,458.788 161.5,455.5C 158.167,455.5 154.833,455.5 151.5,455.5C 151.5,450.167 151.5,444.833 151.5,439.5C 150.167,439.5 148.833,439.5 147.5,439.5C 147.5,436.833 147.5,434.167 147.5,431.5C 144.833,431.5 142.167,431.5 139.5,431.5C 139.223,428.552 139.556,425.719 140.5,423C 139.667,420.833 138.167,419.333 136,418.5C 135.505,416.527 135.338,414.527 135.5,412.5C 132.833,412.5 130.167,412.5 127.5,412.5C 127.5,410.833 127.5,409.167 127.5,407.5C 126.167,407.5 124.833,407.5 123.5,407.5C 123.5,404.833 123.5,402.167 123.5,399.5C 121.143,399.663 118.81,399.497 116.5,399C 115.667,396.833 114.167,395.333 112,394.5C 111.501,390.848 111.335,387.182 111.5,383.5C 109.833,383.5 108.167,383.5 106.5,383.5C 106.777,380.552 106.444,377.719 105.5,375C 107.246,374.529 108.913,373.862 110.5,373C 108.26,372.023 105.927,371.523 103.5,371.5C 103.33,370.178 103.663,369.011 104.5,368C 101.487,367.498 98.4869,366.998 95.5,366.5C 95.5,364.5 95.5,362.5 95.5,360.5C 97.5,360.167 99.5,359.833 101.5,359.5C 101.5,356.833 101.5,354.167 101.5,351.5C 99.5,351.5 97.5,351.5 95.5,351.5C 95.5,348.833 95.5,346.167 95.5,343.5C 98.1667,343.5 100.833,343.5 103.5,343.5C 103.5,337.5 103.5,331.5 103.5,325.5C 114.167,325.167 114.167,324.833 103.5,324.5C 103.5,322.833 103.5,321.167 103.5,319.5C 101.833,319.5 100.167,319.5 98.5,319.5C 98.5,316.833 98.5,314.167 98.5,311.5C 100.167,311.5 101.833,311.5 103.5,311.5C 103.5,309.5 103.5,307.5 103.5,305.5C 106.166,305.067 108.832,304.567 111.5,304C 107.514,303.501 103.514,303.334 99.5,303.5C 99.5,300.833 99.5,298.167 99.5,295.5C 100.833,295.5 102.167,295.5 103.5,295.5C 103.5,292.833 103.5,290.167 103.5,287.5C 100.833,287.5 98.1667,287.5 95.5,287.5C 95.5,286.167 95.5,284.833 95.5,283.5C 106.087,283.136 106.087,282.136 95.5,280.5C 98.7683,279.513 102.102,279.18 105.5,279.5C 105.5,276.833 105.5,274.167 105.5,271.5C 107.527,271.662 109.527,271.495 111.5,271C 108.854,270.503 106.187,270.336 103.5,270.5C 103.5,269.5 103.5,268.5 103.5,267.5C 100.833,267.5 98.1667,267.5 95.5,267.5C 95.5,266.167 95.5,264.833 95.5,263.5C 98.1667,263.5 100.833,263.5 103.5,263.5C 103.351,262.448 103.517,261.448 104,260.5C 106.167,259.667 107.667,258.167 108.5,256C 107.527,250.593 107.193,245.093 107.5,239.5C 108.833,239.5 110.167,239.5 111.5,239.5C 111.5,237.833 111.5,236.167 111.5,234.5C 117.98,232.425 118.146,229.758 112,226.5C 111.517,225.552 111.351,224.552 111.5,223.5C 110.5,223.5 109.5,223.5 108.5,223.5C 108.5,220.833 108.5,218.167 108.5,215.5C 105.252,215.664 102.252,216.664 99.5,218.5C 99.9767,219.478 100.643,220.311 101.5,221C 99.4465,222.08 97.2798,222.914 95,223.5C 93.7413,219.777 91.4079,218.777 88,220.5C 87.3645,219.034 86.5312,217.7 85.5,216.5C 86.7287,215.719 88.062,215.219 89.5,215C 87.8934,213.951 87.2267,212.451 87.5,210.5C 92.5768,209.86 93.2435,208.193 89.5,205.5C 95.3088,204.496 100.975,202.329 106.5,199C 110.399,194.822 113.732,190.156 116.5,185C 115.633,181.895 115.299,178.728 115.5,175.5C 116.833,175.5 118.167,175.5 119.5,175.5C 119.34,173.801 119.506,172.134 120,170.5C 123.173,167.577 124.34,163.911 123.5,159.5C 127.37,158.201 131.37,157.534 135.5,157.5C 135.393,155.097 136.393,153.264 138.5,152C 137.552,151.517 136.552,151.351 135.5,151.5C 135.5,148.833 135.5,146.167 135.5,143.5C 140.833,143.833 146.167,144.167 151.5,144.5C 151.5,142.833 151.5,141.167 151.5,139.5C 154.167,139.5 156.833,139.5 159.5,139.5C 159.5,138.167 159.5,136.833 159.5,135.5C 162.167,135.5 164.833,135.5 167.5,135.5C 167.5,133.5 167.5,131.5 167.5,129.5C 170.167,129.5 172.833,129.5 175.5,129.5C 175.5,127.833 175.5,126.167 175.5,124.5C 178.167,124.5 180.833,124.5 183.5,124.5C 183.5,122.833 183.5,121.167 183.5,119.5C 186.167,119.5 188.833,119.5 191.5,119.5C 191.5,121.167 191.5,122.833 191.5,124.5C 196.369,125.123 200.369,123.623 203.5,120C 204.793,119.51 206.127,119.343 207.5,119.5C 207.5,117.167 207.5,114.833 207.5,112.5C 210.187,112.664 212.854,112.497 215.5,112C 217.29,109.509 219.457,107.342 222,105.5C 223.128,103.655 223.628,101.655 223.5,99.5C 226.448,99.2229 229.281,99.5562 232,100.5C 234.167,99.6667 235.667,98.1667 236.5,96C 237.448,95.5172 238.448,95.3505 239.5,95.5C 239.5,92.8333 239.5,90.1667 239.5,87.5C 242.167,87.5 244.833,87.5 247.5,87.5C 247.5,86.5 247.5,85.5 247.5,84.5C 252.875,84.8282 258.208,84.4948 263.5,83.5C 265.162,82.6733 266.495,81.5067 267.5,80C 266.182,76.4628 267.515,74.6294 271.5,74.5C 271.5,73.5 271.5,72.5 271.5,71.5C 279.568,71.4909 287.568,70.8243 295.5,69.5C 295.5,68.5 295.5,67.5 295.5,66.5C 306.012,63.5392 316.679,61.2058 327.5,59.5C 327.5,61.1667 327.5,62.8333 327.5,64.5C 335.842,63.4793 344.176,63.4793 352.5,64.5C 354.158,66.3229 355.991,67.9895 358,69.5C 359.009,71.0249 359.509,72.6916 359.5,74.5C 361.359,74.5391 362.692,73.7058 363.5,72C 376.829,71.5001 390.163,71.3334 403.5,71.5C 403.5,74.1667 403.5,76.8333 403.5,79.5C 404.833,79.5 406.167,79.5 407.5,79.5C 407.5,82.5 407.5,85.5 407.5,88.5C 418.06,90.4866 428.726,91.82 439.5,92.5C 444.838,92.1657 450.172,91.8324 455.5,91.5C 455.5,92.8333 455.5,94.1667 455.5,95.5C 457.167,95.5 458.833,95.5 460.5,95.5C 460.703,97.3904 460.037,98.8904 458.5,100C 456.256,100.906 453.923,101.406 451.5,101.5C 447.86,99.6163 444.027,97.9496 440,96.5C 439.316,97.7839 439.483,98.9505 440.5,100C 446.185,101.544 451.018,104.378 455,108.5C 455.494,110.134 455.66,111.801 455.5,113.5C 460.833,114.167 466.167,114.833 471.5,115.5C 471.5,116.833 471.5,118.167 471.5,119.5C 474.833,119.5 478.167,119.5 481.5,119.5C 482.824,127.432 483.491,135.432 483.5,143.5C 484.677,144.691 488.677,145.024 495.5,144.5C 495.5,145.833 495.5,147.167 495.5,148.5C 498.898,148.858 502.065,148.192 505,146.5C 506.261,146.759 507.261,147.426 508,148.5C 508.41,153.509 508.91,158.509 509.5,163.5C 509.351,165.32 508.684,166.82 507.5,168C 508.308,169.706 509.641,170.539 511.5,170.5C 511.335,167.482 511.502,164.482 512,161.5C 512.667,163.5 513.333,165.5 514,167.5C 515,164.833 516,162.167 517,159.5C 517.735,161.871 518.568,164.205 519.5,166.5C 527.472,167.498 535.472,167.831 543.5,167.5C 543.5,168.833 543.5,170.167 543.5,171.5C 538.167,170.833 532.833,170.167 527.5,169.5C 527.5,170.833 527.5,172.167 527.5,173.5C 530.247,173.187 532.914,173.52 535.5,174.5C 534.311,175.429 532.978,175.762 531.5,175.5C 531.5,179.5 531.5,183.5 531.5,187.5C 535.5,187.5 539.5,187.5 543.5,187.5C 543.5,192.5 543.5,197.5 543.5,202.5C 547.534,202.495 551.534,202.162 555.5,201.5C 555.5,203.5 555.5,205.5 555.5,207.5C 556.833,207.5 558.167,207.5 559.5,207.5C 560.937,209.96 561.937,212.626 562.5,215.5C 563.5,215.5 564.5,215.5 565.5,215.5C 565.187,218.247 565.52,220.914 566.5,223.5C 569.427,224.801 572.427,225.801 575.5,226.5C 575.773,228.451 575.107,229.951 573.5,231C 574.973,231.71 575.64,232.876 575.5,234.5C 570.631,233.877 566.631,235.377 563.5,239C 564.684,240.18 565.351,241.68 565.5,243.5C 565.351,245.32 564.684,246.82 563.5,248C 565.286,248.196 566.619,249.029 567.5,250.5C 565.726,251.187 564.059,252.02 562.5,253C 566.253,254.989 570.253,255.822 574.5,255.5C 573.833,260.833 573.167,266.167 572.5,271.5C 571.448,271.351 570.448,271.517 569.5,272C 571.436,272.813 573.436,273.313 575.5,273.5C 575.5,274.5 575.5,275.5 575.5,276.5C 572.833,275.833 570.167,275.167 567.5,274.5C 567.5,275.5 567.5,276.5 567.5,277.5C 569.564,277.687 571.564,278.187 573.5,279C 571.638,280.756 569.638,282.256 567.5,283.5C 568.824,284.935 570.49,285.935 572.5,286.5C 570.955,287.452 569.288,287.785 567.5,287.5C 567.5,292.833 567.5,298.167 567.5,303.5C 569.857,303.337 572.19,303.503 574.5,304C 572.336,304.914 570.336,306.081 568.5,307.5C 570.583,308.959 572.75,310.292 575,311.5C 576.041,314.636 575.207,317.136 572.5,319C 574.677,320.186 575.677,322.019 575.5,324.5C 572.833,325.167 570.167,325.833 567.5,326.5C 567.5,328.167 567.5,329.833 567.5,331.5C 570.167,331.5 572.833,331.5 575.5,331.5C 575.5,332.833 575.5,334.167 575.5,335.5C 564.833,336.167 564.833,336.833 575.5,337.5C 575.649,338.552 575.483,339.552 575,340.5C 569.095,343.298 569.262,344.965 575.5,345.5C 575.5,346.833 575.5,348.167 575.5,349.5C 568.992,350.742 568.992,351.408 575.5,351.5C 575.5,354.167 575.5,356.833 575.5,359.5C 574.167,359.5 572.833,359.5 571.5,359.5C 571.5,362.167 571.5,364.833 571.5,367.5C 570.325,367.281 569.325,367.614 568.5,368.5C 570.5,370.5 572.5,372.5 574.5,374.5C 573.975,375.192 573.308,375.692 572.5,376C 575.041,377.848 576.041,380.348 575.5,383.5C 574.127,383.343 572.793,383.51 571.5,384C 573.592,385.925 576.092,387.092 579,387.5C 580.146,389.644 581.646,391.477 583.5,393C 583.265,393.873 582.931,394.707 582.5,395.5C 586.833,396.167 591.167,396.833 595.5,397.5C 594.926,400.321 593.592,402.654 591.5,404.5C 584.356,405.033 577.356,405.866 570.5,407C 571.893,408.363 573.559,409.196 575.5,409.5C 578.92,407.613 582.587,407.113 586.5,408C 584.058,408.946 582.058,410.446 580.5,412.5C 581.993,414.364 582.66,416.53 582.5,419C 581.877,423.147 581.544,427.314 581.5,431.5C 579.08,431.292 576.747,431.626 574.5,432.5C 574.302,429.215 572.635,427.548 569.5,427.5C 569.33,428.822 569.663,429.989 570.5,431C 569.552,431.483 568.552,431.649 567.5,431.5C 567.5,432.5 567.5,433.5 567.5,434.5C 574.652,434.773 574.986,435.94 568.5,438C 568.833,438.333 569.167,438.667 569.5,439C 565.493,442.678 560.827,445.011 555.5,446C 554.622,449.148 553.289,452.314 551.5,455.5C 544.26,451.846 536.926,451.68 529.5,455C 530.833,455.667 530.833,456.333 529.5,457C 527.381,457.098 525.714,457.931 524.5,459.5C 526.015,460.591 526.848,461.924 527,463.5C 525.213,464.343 523.38,464.51 521.5,464C 520.643,464.689 519.977,465.522 519.5,466.5C 520.428,467.768 520.595,469.101 520,470.5C 514.192,475.538 508.692,481.038 503.5,487C 501.5,487.333 499.5,487.667 497.5,488C 496.663,489.011 496.33,490.178 496.5,491.5C 493.5,491.5 490.5,491.5 487.5,491.5C 487.5,490.167 487.5,488.833 487.5,487.5C 484.833,487.5 482.167,487.5 479.5,487.5C 479.5,486.167 479.5,484.833 479.5,483.5C 476.833,483.5 474.167,483.5 471.5,483.5C 471.5,485.5 471.5,487.5 471.5,489.5C 468.833,489.5 466.167,489.5 463.5,489.5C 463.5,490.5 463.5,491.5 463.5,492.5C 460.833,492.5 458.167,492.5 455.5,492.5C 455.5,493.5 455.5,494.5 455.5,495.5C 452.833,495.5 450.167,495.5 447.5,495.5C 447.5,496.833 447.5,498.167 447.5,499.5C 444.833,499.5 442.167,499.5 439.5,499.5C 439.5,500.5 439.5,501.5 439.5,502.5C 436.833,502.5 434.167,502.5 431.5,502.5C 431.5,504.167 431.5,505.833 431.5,507.5C 428.833,507.5 426.167,507.5 423.5,507.5C 423.5,508.833 423.5,510.167 423.5,511.5C 420.833,511.5 418.167,511.5 415.5,511.5C 415.5,513.167 415.5,514.833 415.5,516.5C 408.853,517.493 402.186,518.493 395.5,519.5C 391.524,518.836 387.524,518.503 383.5,518.5C 383.5,520.167 383.5,521.833 383.5,523.5 Z"/></g>
<g><path style="opacity:1" fill="#f4fafc" d="M 420.5,175.5 C 414.98,170.367 409.313,165.2 403.5,160C 402.207,159.51 400.873,159.343 399.5,159.5C 396.509,154.222 391.842,151.222 385.5,150.5C 381.69,148.093 377.69,145.926 373.5,144C 366.374,141.808 359.04,140.308 351.5,139.5C 332.927,136.907 314.927,139.407 297.5,147C 296.058,147.377 295.058,148.21 294.5,149.5C 288.785,151.196 283.452,153.863 278.5,157.5C 274.441,161.565 270.107,165.232 265.5,168.5C 265.351,167.448 265.517,166.448 266,165.5C 268.356,163.31 270.856,161.31 273.5,159.5C 269.492,157.154 266.159,154.154 263.5,150.5C 261.285,151.821 259.618,153.654 258.5,156C 257.552,156.483 256.552,156.649 255.5,156.5C 255.5,157.5 255.5,158.5 255.5,159.5C 254.167,159.5 252.833,159.5 251.5,159.5C 251.5,162.167 251.5,164.833 251.5,167.5C 247.521,166.375 243.521,166.375 239.5,167.5C 239.5,169.167 239.5,170.833 239.5,172.5C 236.833,172.5 234.167,172.5 231.5,172.5C 231.5,173.5 231.5,174.5 231.5,175.5C 227.833,175.5 224.167,175.5 220.5,175.5C 219.737,179.274 217.737,182.274 214.5,184.5C 213.764,186.541 212.931,188.541 212,190.5C 210.644,191.38 209.144,191.714 207.5,191.5C 207.665,188.482 207.498,185.482 207,182.5C 203.434,180.095 199.767,178.762 196,178.5C 195.316,177.216 195.483,176.049 196.5,175C 195.692,174.692 195.025,174.192 194.5,173.5C 197.169,170.141 196.336,167.808 192,166.5C 191.501,162.848 191.335,159.182 191.5,155.5C 194.579,155.74 197.579,155.407 200.5,154.5C 202.5,157.167 204.5,157.167 206.5,154.5C 207.308,152.577 207.808,150.577 208,148.5C 210.167,147.667 211.667,146.167 212.5,144C 213.448,143.517 214.448,143.351 215.5,143.5C 215.229,138.441 217.563,135.441 222.5,134.5C 223.474,132.257 223.808,129.924 223.5,127.5C 224.5,127.5 225.5,127.5 226.5,127.5C 229.214,122.753 231.547,117.753 233.5,112.5C 235.396,111.534 237.396,111.201 239.5,111.5C 239.047,108.348 240.047,105.848 242.5,104C 242.167,103.667 241.833,103.333 241.5,103C 251.656,100.354 261.656,97.8543 271.5,95.5C 271.5,94.1667 271.5,92.8333 271.5,91.5C 274.049,91.6126 276.382,90.9459 278.5,89.5C 280.106,90.0766 281.772,90.4099 283.5,90.5C 290.066,88.8459 296.733,88.1793 303.5,88.5C 303.5,87.1667 303.5,85.8333 303.5,84.5C 308.012,84.8514 312.345,84.1848 316.5,82.5C 319.063,82.737 319.063,83.237 316.5,84C 317,84.1667 317.5,84.3333 318,84.5C 321.476,82.2163 325.142,81.883 329,83.5C 330.497,82.5227 331.997,81.5227 333.5,80.5C 335.569,80.8242 335.902,81.6575 334.5,83C 336.134,83.4935 337.801,83.6602 339.5,83.5C 339.5,84.8333 339.5,86.1667 339.5,87.5C 346.175,87.6117 352.842,87.9451 359.5,88.5C 367.519,89.8398 375.519,91.1732 383.5,92.5C 383.5,93.5 383.5,94.5 383.5,95.5C 388.833,95.5 394.167,95.5 399.5,95.5C 399.5,96.5 399.5,97.5 399.5,98.5C 402.397,98.1253 405.063,98.6253 407.5,100C 406.5,100.333 405.5,100.667 404.5,101C 406.5,101.667 407.833,103 408.5,105C 409.744,105.456 410.577,104.956 411,103.5C 411.908,105.439 413.408,106.439 415.5,106.5C 415.5,108.167 415.5,109.833 415.5,111.5C 420.833,111.5 426.167,111.5 431.5,111.5C 432.217,114.323 433.217,116.99 434.5,119.5C 436.167,119.5 437.833,119.5 439.5,119.5C 439.5,120.5 439.5,121.5 439.5,122.5C 442.68,122.176 443.847,123.51 443,126.5C 441.913,124.068 441.413,124.402 441.5,127.5C 443.5,127.5 445.5,127.5 447.5,127.5C 447.5,130.5 447.5,133.5 447.5,136.5C 448.822,136.67 449.989,136.337 451,135.5C 452.11,137.243 453.61,138.576 455.5,139.5C 454.754,140.736 454.421,142.07 454.5,143.5C 456.835,144.413 459.001,145.747 461,147.5C 461.614,149.313 461.281,149.647 460,148.5C 459.308,149.025 458.808,149.692 458.5,150.5C 462.639,151.416 464.305,154.416 463.5,159.5C 466.951,159.526 469.618,161.026 471.5,164C 469.519,164.605 469.185,165.605 470.5,167C 472.251,168.145 474.084,168.645 476,168.5C 476.985,173.379 478.152,178.213 479.5,183C 478.886,184.537 478.886,185.87 479.5,187C 478.5,187.5 477.5,188 476.5,188.5C 474.061,185.887 471.228,183.887 468,182.5C 467.667,182.833 467.333,183.167 467,183.5C 466.556,189.11 467.056,194.61 468.5,200C 467.667,202.167 466.167,203.667 464,204.5C 463.502,201.183 463.335,197.85 463.5,194.5C 458.167,194.5 452.833,194.5 447.5,194.5C 447.5,190.5 447.5,186.5 447.5,182.5C 443.543,182.992 439.877,182.325 436.5,180.5C 433.174,176.342 429.341,172.675 425,169.5C 424.333,168.833 424.333,168.167 425,167.5C 425.837,169.007 427.004,169.507 428.5,169C 429.641,168.259 429.641,167.425 428.5,166.5C 424.889,164.777 421.722,162.444 419,159.5C 416.679,160.361 415.513,159.361 415.5,156.5C 411.36,154.607 408.693,155.94 407.5,160.5C 409.22,161.92 411.054,163.253 413,164.5C 413.483,165.448 413.649,166.448 413.5,167.5C 416.552,168.71 419.219,170.544 421.5,173C 420.748,173.671 420.414,174.504 420.5,175.5 Z"/></g>
<g><path style="opacity:1" fill="#76c1f7" d="M 351.5,140.5 C 349.044,144.207 345.71,147.04 341.5,149C 342.094,149.464 342.761,149.631 343.5,149.5C 330.13,151.679 317.463,156.012 305.5,162.5C 299.829,160.335 294.663,157.335 290,153.5C 283.821,156.185 278.321,159.851 273.5,164.5C 273.619,167.258 273.285,170.092 272.5,173C 271.668,173.688 271.002,173.521 270.5,172.5C 271.309,170.929 271.643,169.262 271.5,167.5C 268.615,168.382 265.948,169.716 263.5,171.5C 264.167,170.5 264.833,169.5 265.5,168.5C 270.107,165.232 274.441,161.565 278.5,157.5C 283.452,153.863 288.785,151.196 294.5,149.5C 302.309,148.265 309.976,146.432 317.5,144C 317.167,143.667 316.833,143.333 316.5,143C 318.246,142.529 319.913,141.862 321.5,141C 331.494,140.5 341.494,140.334 351.5,140.5 Z"/></g>
<g><path style="opacity:1" fill="#83c2ee" d="M 351.5,139.5 C 351.5,139.833 351.5,140.167 351.5,140.5C 341.494,140.334 331.494,140.5 321.5,141C 319.913,141.862 318.246,142.529 316.5,143C 316.833,143.333 317.167,143.667 317.5,144C 309.976,146.432 302.309,148.265 294.5,149.5C 295.058,148.21 296.058,147.377 297.5,147C 314.927,139.407 332.927,136.907 351.5,139.5 Z"/></g>
<g><path style="opacity:1" fill="#98c3f7" d="M 351.5,139.5 C 359.04,140.308 366.374,141.808 373.5,144C 377.69,145.926 381.69,148.093 385.5,150.5C 383.824,151.183 383.157,152.517 383.5,154.5C 381.194,154.007 378.861,153.674 376.5,153.5C 365.778,150.285 354.778,148.952 343.5,149.5C 342.761,149.631 342.094,149.464 341.5,149C 345.71,147.04 349.044,144.207 351.5,140.5C 351.5,140.167 351.5,139.833 351.5,139.5 Z"/></g>
<g><path style="opacity:1" fill="#7498ef" d="M 375.5,154.5 C 374.748,156.1 373.748,157.6 372.5,159C 373.624,159.249 374.624,159.749 375.5,160.5C 374.828,162.16 373.828,163.493 372.5,164.5C 366.715,162.221 360.715,160.887 354.5,160.5C 349.71,159.275 344.71,158.608 339.5,158.5C 338.391,157.71 337.058,157.21 335.5,157C 334.167,155.667 334.167,154.333 335.5,153C 348.895,151.503 362.228,152.003 375.5,154.5 Z"/></g>
<g><path style="opacity:1" fill="#6698e9" d="M 343.5,149.5 C 354.778,148.952 365.778,150.285 376.5,153.5C 376.5,154.167 376.167,154.5 375.5,154.5C 362.228,152.003 348.895,151.503 335.5,153C 334.167,154.333 334.167,155.667 335.5,157C 337.058,157.21 338.391,157.71 339.5,158.5C 335.727,159.103 332.061,159.77 328.5,160.5C 321.427,160.977 314.76,162.644 308.5,165.5C 304.736,166.548 301.069,167.881 297.5,169.5C 299.6,166.477 302.266,164.144 305.5,162.5C 317.463,156.012 330.13,151.679 343.5,149.5 Z"/></g>
<g><path style="opacity:1" fill="#afc6f4" d="M 385.5,150.5 C 391.842,151.222 396.509,154.222 399.5,159.5C 400.873,159.343 402.207,159.51 403.5,160C 409.313,165.2 414.98,170.367 420.5,175.5C 422.238,177.921 423.571,180.588 424.5,183.5C 419.408,178.583 414.074,173.75 408.5,169C 404.501,165.815 400.168,163.315 395.5,161.5C 391.237,159.533 387.237,157.199 383.5,154.5C 383.157,152.517 383.824,151.183 385.5,150.5 Z"/></g>
<g><path style="opacity:1" fill="#4971d5" d="M 339.5,158.5 C 344.71,158.608 349.71,159.275 354.5,160.5C 345.833,160.5 337.167,160.5 328.5,160.5C 332.061,159.77 335.727,159.103 339.5,158.5 Z"/></g>
<g><path style="opacity:1" fill="#89a0f2" d="M 376.5,153.5 C 378.861,153.674 381.194,154.007 383.5,154.5C 387.237,157.199 391.237,159.533 395.5,161.5C 396.984,162.473 397.484,163.807 397,165.5C 395.667,166.833 394.333,166.833 393,165.5C 392.5,166 392,166.5 391.5,167C 392.833,167.667 392.833,168.333 391.5,169C 393.119,169.236 394.119,170.069 394.5,171.5C 392.97,170.933 391.47,170.267 390,169.5C 388.644,170.38 387.144,170.714 385.5,170.5C 381.239,168.516 376.906,166.516 372.5,164.5C 373.828,163.493 374.828,162.16 375.5,160.5C 374.624,159.749 373.624,159.249 372.5,159C 373.748,157.6 374.748,156.1 375.5,154.5C 376.167,154.5 376.5,154.167 376.5,153.5 Z"/></g>
<g><path style="opacity:1" fill="#737bd3" d="M 354.5,160.5 C 360.715,160.887 366.715,162.221 372.5,164.5C 376.906,166.516 381.239,168.516 385.5,170.5C 386.306,171.728 387.306,172.728 388.5,173.5C 387.957,173.56 387.624,173.893 387.5,174.5C 388.857,176.186 390.19,177.852 391.5,179.5C 380.532,171.683 368.532,166.016 355.5,162.5C 355.167,161.833 354.833,161.167 354.5,160.5 Z"/></g>
<g><path style="opacity:1" fill="#5372bf" d="M 328.5,160.5 C 337.167,160.5 345.833,160.5 354.5,160.5C 354.833,161.167 355.167,161.833 355.5,162.5C 337.188,159.146 319.854,161.813 303.5,170.5C 305.222,169 306.888,167.333 308.5,165.5C 314.76,162.644 321.427,160.977 328.5,160.5 Z"/></g>
<g><path style="opacity:1" fill="#f9fbfb" d="M 355.5,162.5 C 368.532,166.016 380.532,171.683 391.5,179.5C 395.491,183.991 399.657,188.324 404,192.5C 406.879,197.605 409.713,202.605 412.5,207.5C 413.852,211.176 415.185,214.843 416.5,218.5C 418.262,227.386 418.928,236.386 418.5,245.5C 417.85,247.435 417.517,249.435 417.5,251.5C 416.656,254.345 415.99,257.345 415.5,260.5C 415.5,261.167 415.5,261.833 415.5,262.5C 413.741,265.185 412.741,268.185 412.5,271.5C 410.031,272.607 409.031,274.607 409.5,277.5C 408.662,277.842 408.328,278.508 408.5,279.5C 404.167,284.5 399.833,289.5 395.5,294.5C 391.46,297.844 387.46,301.177 383.5,304.5C 379.701,305.421 376.368,307.088 373.5,309.5C 355.914,316.776 337.914,318.109 319.5,313.5C 305.52,309.55 293.853,301.883 284.5,290.5C 279.7,284.926 275.367,278.926 271.5,272.5C 271.5,272.167 271.5,271.833 271.5,271.5C 265.83,258.513 263.497,244.847 264.5,230.5C 264.5,229.833 264.5,229.167 264.5,228.5C 265.898,219.924 268.398,211.591 272,203.5C 275.499,199.173 278.499,194.506 281,189.5C 283.705,186.964 286.205,184.297 288.5,181.5C 293.293,177.598 298.293,173.932 303.5,170.5C 319.854,161.813 337.188,159.146 355.5,162.5 Z"/></g>
<g><path style="opacity:1" fill="#9ba2f2" d="M 395.5,161.5 C 400.168,163.315 404.501,165.815 408.5,169C 414.074,173.75 419.408,178.583 424.5,183.5C 427.164,185.484 428.831,188.151 429.5,191.5C 427.57,190.237 425.903,188.57 424.5,186.5C 423.675,185.614 422.675,185.281 421.5,185.5C 421.5,186.5 421.5,187.5 421.5,188.5C 418.833,188.167 416.167,187.833 413.5,187.5C 413.843,189.483 413.176,190.817 411.5,191.5C 410.5,191.167 409.833,190.5 409.5,189.5C 409.261,187.533 409.594,185.699 410.5,184C 406.482,182.99 405.149,180.656 406.5,177C 403.497,174.503 400.83,171.67 398.5,168.5C 397.614,169.325 397.281,170.325 397.5,171.5C 396.5,171.5 395.5,171.5 394.5,171.5C 394.119,170.069 393.119,169.236 391.5,169C 392.833,168.333 392.833,167.667 391.5,167C 392,166.5 392.5,166 393,165.5C 394.333,166.833 395.667,166.833 397,165.5C 397.484,163.807 396.984,162.473 395.5,161.5 Z"/></g>
<g><path style="opacity:1" fill="#8e98f2" d="M 409.5,189.5 C 402.894,183.58 395.894,178.247 388.5,173.5C 387.306,172.728 386.306,171.728 385.5,170.5C 387.144,170.714 388.644,170.38 390,169.5C 391.47,170.267 392.97,170.933 394.5,171.5C 395.5,171.5 396.5,171.5 397.5,171.5C 397.281,170.325 397.614,169.325 398.5,168.5C 400.83,171.67 403.497,174.503 406.5,177C 405.149,180.656 406.482,182.99 410.5,184C 409.594,185.699 409.261,187.533 409.5,189.5 Z"/></g>
<g><path style="opacity:1" fill="#4972d1" d="M 308.5,165.5 C 306.888,167.333 305.222,169 303.5,170.5C 298.293,173.932 293.293,177.598 288.5,181.5C 287.399,180.402 286.066,180.235 284.5,181C 283.627,182.045 282.627,182.878 281.5,183.5C 281.733,181.938 282.4,180.605 283.5,179.5C 288.463,176.53 293.13,173.196 297.5,169.5C 301.069,167.881 304.736,166.548 308.5,165.5 Z"/></g>
<g><path style="opacity:1" fill="#6d69d6" d="M 388.5,173.5 C 395.894,178.247 402.894,183.58 409.5,189.5C 409.833,190.5 410.5,191.167 411.5,191.5C 412.11,192.391 412.443,193.391 412.5,194.5C 410.437,193.289 409.437,194.123 409.5,197C 411.505,200.187 412.505,203.687 412.5,207.5C 409.713,202.605 406.879,197.605 404,192.5C 399.657,188.324 395.491,183.991 391.5,179.5C 390.19,177.852 388.857,176.186 387.5,174.5C 387.624,173.893 387.957,173.56 388.5,173.5 Z"/></g>
<g><path style="opacity:1" fill="#75dce9" d="M 339.5,182.5 C 343.903,181.893 345.236,183.56 343.5,187.5C 341.955,188.452 340.288,188.785 338.5,188.5C 338.325,186.379 338.659,184.379 339.5,182.5 Z"/></g>
<g><path style="opacity:1" fill="#64c5e2" d="M 320.5,187.5 C 325.328,187.385 326.661,189.552 324.5,194C 319.57,194.427 318.237,192.26 320.5,187.5 Z"/></g>
<g><path style="opacity:1" fill="#55c8e1" d="M 358.5,188.5 C 360.167,188.5 361.833,188.5 363.5,188.5C 363.512,192.446 361.512,194.113 357.5,193.5C 357.366,191.708 357.699,190.042 358.5,188.5 Z"/></g>
<g><path style="opacity:1" fill="#51b9f3" d="M 305.5,162.5 C 302.266,164.144 299.6,166.477 297.5,169.5C 293.13,173.196 288.463,176.53 283.5,179.5C 278.372,181.904 273.705,185.071 269.5,189C 264.329,196.992 258.329,204.159 251.5,210.5C 252.114,197.687 255.947,186.02 263,175.5C 263.49,174.207 263.657,172.873 263.5,171.5C 265.948,169.716 268.615,168.382 271.5,167.5C 271.643,169.262 271.309,170.929 270.5,172.5C 271.002,173.521 271.668,173.688 272.5,173C 273.285,170.092 273.619,167.258 273.5,164.5C 278.321,159.851 283.821,156.185 290,153.5C 294.663,157.335 299.829,160.335 305.5,162.5 Z"/></g>
<g><path style="opacity:1" fill="#a299f0" d="M 429.5,191.5 C 431.326,193.147 432.66,195.147 433.5,197.5C 433.752,201.327 435.085,204.66 437.5,207.5C 439.277,210.505 440.277,213.838 440.5,217.5C 438.72,216.01 438.054,214.01 438.5,211.5C 436.94,211.519 435.44,211.852 434,212.5C 433,211.833 432,211.167 431,210.5C 429.453,212.921 427.953,215.254 426.5,217.5C 422.938,209.131 418.272,201.465 412.5,194.5C 412.443,193.391 412.11,192.391 411.5,191.5C 413.176,190.817 413.843,189.483 413.5,187.5C 416.167,187.833 418.833,188.167 421.5,188.5C 421.5,187.5 421.5,186.5 421.5,185.5C 422.675,185.281 423.675,185.614 424.5,186.5C 425.903,188.57 427.57,190.237 429.5,191.5 Z"/></g>
<g><path style="opacity:1" fill="#80d5e5" d="M 338.5,193.5 C 343.123,192.408 344.956,194.075 344,198.5C 339.325,200.334 337.492,198.667 338.5,193.5 Z"/></g>
<g><path style="opacity:1" fill="#4ed0f5" d="M 263.5,171.5 C 263.657,172.873 263.49,174.207 263,175.5C 255.947,186.02 252.114,197.687 251.5,210.5C 245.995,220.679 241.662,231.346 238.5,242.5C 238.5,241.5 238.5,240.5 238.5,239.5C 237.089,219.662 242.589,201.995 255,186.5C 255.49,185.207 255.657,183.873 255.5,182.5C 257.4,178.268 260.067,174.601 263.5,171.5 Z"/></g>
<g><path style="opacity:1" fill="#bcb7e7" d="M 433.5,197.5 C 435.794,200.37 437.128,203.703 437.5,207.5C 435.085,204.66 433.752,201.327 433.5,197.5 Z"/></g>
<g><path style="opacity:1" fill="#5dc6de" d="M 352.5,198.5 C 356.5,197.833 358.167,199.5 357.5,203.5C 355.5,203.5 353.5,203.5 351.5,203.5C 351.366,201.708 351.699,200.042 352.5,198.5 Z"/></g>
<g><path style="opacity:1" fill="#67c3db" d="M 325.5,198.5 C 329.5,197.833 331.167,199.5 330.5,203.5C 328.833,203.5 327.167,203.5 325.5,203.5C 325.5,201.833 325.5,200.167 325.5,198.5 Z"/></g>
<g><path style="opacity:1" fill="#2d5fc3" d="M 288.5,181.5 C 286.205,184.297 283.705,186.964 281,189.5C 278.499,194.506 275.499,199.173 272,203.5C 268.398,211.591 265.898,219.924 264.5,228.5C 265.084,223.501 265.251,218.501 265,213.5C 264.617,214.056 264.117,214.389 263.5,214.5C 263.838,212.146 264.338,209.813 265,207.5C 268.103,202.731 270.769,197.731 273,192.5C 275.378,189.085 278.211,186.085 281.5,183.5C 282.627,182.878 283.627,182.045 284.5,181C 286.066,180.235 287.399,180.402 288.5,181.5 Z"/></g>
<g><path style="opacity:1" fill="#59badc" d="M 306.5,200.5 C 309.233,200.196 310.899,201.363 311.5,204C 310.658,207.173 308.825,208.006 306,206.5C 305.322,204.402 305.489,202.402 306.5,200.5 Z"/></g>
<g><path style="opacity:1" fill="#66c8df" d="M 371.5,201.5 C 373.5,201.5 375.5,201.5 377.5,201.5C 377.5,203.5 377.5,205.5 377.5,207.5C 372.5,208.5 370.5,206.5 371.5,201.5 Z"/></g>
<g><path style="opacity:1" fill="#33b8df" d="M 351.5,207.5 C 354.689,210.043 356.689,213.377 357.5,217.5C 355.39,216.547 354.223,214.881 354,212.5C 347.567,217.709 340.567,218.709 333,215.5C 331.042,216.952 329.042,217.285 327,216.5C 325.648,218.594 325.148,220.927 325.5,223.5C 328.385,223.194 331.052,223.527 333.5,224.5C 330.5,224.5 327.5,224.5 324.5,224.5C 324.027,213.755 329.027,207.422 339.5,205.5C 343.534,206.04 347.534,206.707 351.5,207.5 Z"/></g>
<g><path style="opacity:1" fill="#69c3da" d="M 320.5,207.5 C 322.444,211.116 321.444,213.116 317.5,213.5C 315.623,212.341 315.123,210.674 316,208.5C 317.356,207.62 318.856,207.286 320.5,207.5 Z"/></g>
<g><path style="opacity:1" fill="#61c5e0" d="M 362.5,207.5 C 366.908,207.062 368.575,209.062 367.5,213.5C 365.833,213.5 364.167,213.5 362.5,213.5C 362.5,211.5 362.5,209.5 362.5,207.5 Z"/></g>
<g><path style="opacity:1" fill="#70d1e8" d="M 255.5,182.5 C 255.657,183.873 255.49,185.207 255,186.5C 242.589,201.995 237.089,219.662 238.5,239.5C 236.994,236.644 236.328,233.477 236.5,230C 236.753,223.316 237.919,216.816 240,210.5C 243.281,203.606 246.281,196.606 249,189.5C 250.719,186.712 252.885,184.379 255.5,182.5 Z"/></g>
<g><path style="opacity:1" fill="#7964d9" d="M 412.5,194.5 C 418.272,201.465 422.938,209.131 426.5,217.5C 426.557,218.609 426.89,219.609 427.5,220.5C 425.181,219.833 422.847,219.666 420.5,220C 419.663,221.011 419.33,222.178 419.5,223.5C 419.028,221.469 418.028,219.802 416.5,218.5C 415.185,214.843 413.852,211.176 412.5,207.5C 412.505,203.687 411.505,200.187 409.5,197C 409.437,194.123 410.437,193.289 412.5,194.5 Z"/></g>
<g><path style="opacity:1" fill="#aa8fee" d="M 440.5,217.5 C 441.114,221.135 441.448,224.802 441.5,228.5C 438.823,228.818 436.157,228.318 433.5,227C 434.042,224.758 434.709,222.258 435.5,219.5C 434.5,219.5 433.5,219.5 432.5,219.5C 432.657,220.873 432.49,222.207 432,223.5C 431.092,221.561 429.592,220.561 427.5,220.5C 426.89,219.609 426.557,218.609 426.5,217.5C 427.953,215.254 429.453,212.921 431,210.5C 432,211.167 433,211.833 434,212.5C 435.44,211.852 436.94,211.519 438.5,211.5C 438.054,214.01 438.72,216.01 440.5,217.5 Z"/></g>
<g><path style="opacity:1" fill="#2baada" d="M 357.5,217.5 C 358.461,219.265 358.795,221.265 358.5,223.5C 355.482,223.335 352.482,223.502 349.5,224C 348.748,224.671 348.414,225.504 348.5,226.5C 345.449,226.364 342.449,226.698 339.5,227.5C 337.813,227.24 336.313,226.573 335,225.5C 334.768,226.737 334.268,227.737 333.5,228.5C 333.5,227.167 333.5,225.833 333.5,224.5C 331.052,223.527 328.385,223.194 325.5,223.5C 325.148,220.927 325.648,218.594 327,216.5C 329.042,217.285 331.042,216.952 333,215.5C 340.567,218.709 347.567,217.709 354,212.5C 354.223,214.881 355.39,216.547 357.5,217.5 Z"/></g>
<g><path style="opacity:1" fill="#3591e5" d="M 283.5,179.5 C 282.4,180.605 281.733,181.938 281.5,183.5C 278.211,186.085 275.378,189.085 273,192.5C 270.769,197.731 268.103,202.731 265,207.5C 264.338,209.813 263.838,212.146 263.5,214.5C 260.598,221.102 258.765,228.102 258,235.5C 257.592,243.037 257.425,250.37 257.5,257.5C 255.711,249.663 253.878,241.663 252,233.5C 251.5,225.841 251.334,218.174 251.5,210.5C 258.329,204.159 264.329,196.992 269.5,189C 273.705,185.071 278.372,181.904 283.5,179.5 Z"/></g>
<g><path style="opacity:1" fill="#3794c7" d="M 348.5,226.5 C 348.611,227.117 348.944,227.617 349.5,228C 352.482,228.498 355.482,228.665 358.5,228.5C 358.5,229.833 358.5,231.167 358.5,232.5C 356.167,232.5 353.833,232.5 351.5,232.5C 350.5,232.5 349.5,232.5 348.5,232.5C 346.777,231.2 344.61,230.533 342,230.5C 338.523,230.328 335.356,230.994 332.5,232.5C 329.833,232.5 327.167,232.5 324.5,232.5C 324.5,231.167 324.5,229.833 324.5,228.5C 327.5,228.5 330.5,228.5 333.5,228.5C 334.268,227.737 334.768,226.737 335,225.5C 336.313,226.573 337.813,227.24 339.5,227.5C 342.449,226.698 345.449,226.364 348.5,226.5 Z"/></g>
<g><path style="opacity:1" fill="#ad87ee" d="M 441.5,228.5 C 442.167,233.833 442.833,239.167 443.5,244.5C 443.167,244.5 442.833,244.5 442.5,244.5C 442.631,243.761 442.464,243.094 442,242.5C 439.566,244.023 436.899,245.023 434,245.5C 433.821,249.025 433.321,252.359 432.5,255.5C 433.106,243.472 431.439,231.806 427.5,220.5C 429.592,220.561 431.092,221.561 432,223.5C 432.49,222.207 432.657,220.873 432.5,219.5C 433.5,219.5 434.5,219.5 435.5,219.5C 434.709,222.258 434.042,224.758 433.5,227C 436.157,228.318 438.823,228.818 441.5,228.5 Z"/></g>
<g><path style="opacity:1" fill="#7b59b5" d="M 416.5,218.5 C 418.028,219.802 419.028,221.469 419.5,223.5C 419.825,231.019 419.492,238.352 418.5,245.5C 418.928,236.386 418.262,227.386 416.5,218.5 Z"/></g>
<g><path style="opacity:1" fill="#3b87c5" d="M 348.5,232.5 C 348.286,234.144 348.62,235.644 349.5,237C 352.146,237.497 354.813,237.664 357.5,237.5C 357.5,238.833 357.5,240.167 357.5,241.5C 353.237,240.606 348.904,239.606 344.5,238.5C 338.786,238.931 332.786,239.098 326.5,239C 325.525,244.741 325.192,250.575 325.5,256.5C 324.51,250.355 324.177,244.022 324.5,237.5C 327.249,237.726 329.916,237.393 332.5,236.5C 333.782,235.042 333.782,233.708 332.5,232.5C 335.356,230.994 338.523,230.328 342,230.5C 344.61,230.533 346.777,231.2 348.5,232.5 Z"/></g>
<g><path style="opacity:1" fill="#a995d6" d="M 440.5,217.5 C 442.599,221.795 443.766,226.462 444,231.5C 444.5,240.494 444.666,249.494 444.5,258.5C 444.167,258.5 443.833,258.5 443.5,258.5C 443.5,253.833 443.5,249.167 443.5,244.5C 442.833,239.167 442.167,233.833 441.5,228.5C 441.448,224.802 441.114,221.135 440.5,217.5 Z"/></g>
<g><path style="opacity:1" fill="#30aeea" d="M 251.5,210.5 C 251.334,218.174 251.5,225.841 252,233.5C 253.878,241.663 255.711,249.663 257.5,257.5C 257.5,258.167 257.5,258.833 257.5,259.5C 256.694,260.997 256.028,262.664 255.5,264.5C 250.88,265.493 246.214,265.827 241.5,265.5C 240.291,261.411 238.791,257.411 237,253.5C 236.617,254.056 236.117,254.389 235.5,254.5C 237.472,250.764 238.472,246.764 238.5,242.5C 241.662,231.346 245.995,220.679 251.5,210.5 Z"/></g>
<g><path style="opacity:1" fill="#7d49d1" d="M 427.5,220.5 C 431.439,231.806 433.106,243.472 432.5,255.5C 431.913,261.037 430.913,266.37 429.5,271.5C 429.649,270.448 429.483,269.448 429,268.5C 428.667,268.833 428.333,269.167 428,269.5C 427.581,268.328 426.915,267.328 426,266.5C 425.316,265.216 425.483,264.049 426.5,263C 424.95,261.004 423.616,258.838 422.5,256.5C 421.311,255.571 419.978,255.238 418.5,255.5C 419.021,258.636 418.021,260.97 415.5,262.5C 415.5,261.833 415.5,261.167 415.5,260.5C 416.117,260.389 416.617,260.056 417,259.5C 417.497,256.854 417.664,254.187 417.5,251.5C 417.517,249.435 417.85,247.435 418.5,245.5C 419.492,238.352 419.825,231.019 419.5,223.5C 419.33,222.178 419.663,221.011 420.5,220C 422.847,219.666 425.181,219.833 427.5,220.5 Z"/></g>
<g><path style="opacity:1" fill="#82afcd" d="M 348.5,232.5 C 349.5,232.5 350.5,232.5 351.5,232.5C 350.909,233.151 350.243,233.818 349.5,234.5C 349.709,235.086 350.043,235.586 350.5,236C 353.365,236.183 356.031,236.683 358.5,237.5C 358.823,244.022 358.49,250.355 357.5,256.5C 357.5,251.5 357.5,246.5 357.5,241.5C 357.5,240.167 357.5,238.833 357.5,237.5C 354.813,237.664 352.146,237.497 349.5,237C 348.62,235.644 348.286,234.144 348.5,232.5 Z"/></g>
<g><path style="opacity:1" fill="#3760bb" d="M 264.5,230.5 C 263.497,244.847 265.83,258.513 271.5,271.5C 267.596,266.859 264.596,261.692 262.5,256C 263.154,247.402 263.82,238.902 264.5,230.5 Z"/></g>
<g><path style="opacity:1" fill="#3064a6" d="M 360.5,270.5 C 361.982,267.668 361.315,266.668 358.5,267.5C 358.893,265.716 359.559,264.05 360.5,262.5C 363.004,257.183 364.004,251.516 363.5,245.5C 364.833,245.5 366.167,245.5 367.5,245.5C 369.242,255.109 366.908,263.442 360.5,270.5 Z"/></g>
<g><path style="opacity:1" fill="#9879c5" d="M 417.5,251.5 C 417.664,254.187 417.497,256.854 417,259.5C 416.617,260.056 416.117,260.389 415.5,260.5C 415.99,257.345 416.656,254.345 417.5,251.5 Z"/></g>
<g><path style="opacity:1" fill="#e6f2f7" d="M 325.5,198.5 C 325.5,200.167 325.5,201.833 325.5,203.5C 327.167,203.5 328.833,203.5 330.5,203.5C 330.351,204.552 330.517,205.552 331,206.5C 334.098,204.953 337.431,204.286 341,204.5C 343.5,204.667 346,204.833 348.5,205C 350.119,205.236 351.119,206.069 351.5,207.5C 347.534,206.707 343.534,206.04 339.5,205.5C 329.027,207.422 324.027,213.755 324.5,224.5C 327.5,224.5 330.5,224.5 333.5,224.5C 333.5,225.833 333.5,227.167 333.5,228.5C 330.5,228.5 327.5,228.5 324.5,228.5C 324.5,229.833 324.5,231.167 324.5,232.5C 327.167,232.5 329.833,232.5 332.5,232.5C 333.782,233.708 333.782,235.042 332.5,236.5C 329.916,237.393 327.249,237.726 324.5,237.5C 324.177,244.022 324.51,250.355 325.5,256.5C 325.896,259.721 327.229,262.388 329.5,264.5C 332.405,268.477 336.405,270.143 341.5,269.5C 346.614,269.717 350.614,267.717 353.5,263.5C 355.931,261.954 357.264,259.621 357.5,256.5C 358.49,250.355 358.823,244.022 358.5,237.5C 359.784,245.019 359.784,252.686 358.5,260.5C 358.747,261.713 359.414,262.38 360.5,262.5C 359.559,264.05 358.893,265.716 358.5,267.5C 346.959,277.878 335.626,277.878 324.5,267.5C 322.688,265.539 321.688,263.206 321.5,260.5C 323.367,251.272 323.867,241.939 323,232.5C 321.667,233.167 320.667,234.167 320,235.5C 319.833,234.833 319.667,234.167 319.5,233.5C 320.208,231.548 321.375,229.881 323,228.5C 323.76,224.775 323.593,221.108 322.5,217.5C 325.33,215.342 325.997,212.676 324.5,209.5C 323.417,213.66 321.084,214.993 317.5,213.5C 321.444,213.116 322.444,211.116 320.5,207.5C 321.325,205.692 322.325,203.859 323.5,202C 323.354,200.273 322.687,200.106 321.5,201.5C 320.692,201.192 320.025,200.692 319.5,200C 320.931,199.535 322.097,198.701 323,197.5C 323.671,198.252 324.504,198.586 325.5,198.5 Z"/></g>
<g><path style="opacity:1" fill="#204fa3" d="M 353.5,263.5 C 350.614,267.717 346.614,269.717 341.5,269.5C 336.405,270.143 332.405,268.477 329.5,264.5C 329.5,263.833 329.5,263.167 329.5,262.5C 332.556,261.412 335.556,261.412 338.5,262.5C 340.484,263.694 342.484,263.694 344.5,262.5C 345.692,259.326 347.025,256.326 348.5,253.5C 350.621,251.867 352.954,250.534 355.5,249.5C 356.652,252.106 356.818,254.773 356,257.5C 354.878,259.407 354.045,261.407 353.5,263.5 Z"/></g>
<g><path style="opacity:1" fill="#2c70b3" d="M 357.5,241.5 C 357.5,246.5 357.5,251.5 357.5,256.5C 357.264,259.621 355.931,261.954 353.5,263.5C 354.045,261.407 354.878,259.407 356,257.5C 356.818,254.773 356.652,252.106 355.5,249.5C 352.954,250.534 350.621,251.867 348.5,253.5C 349.482,250.237 350.149,246.903 350.5,243.5C 349.022,243.238 347.689,243.571 346.5,244.5C 344.636,248.761 342.969,253.094 341.5,257.5C 340.07,253.71 338.736,249.876 337.5,246C 336.381,244.124 334.714,243.291 332.5,243.5C 333.09,247.603 334.09,251.603 335.5,255.5C 332.746,253.374 329.913,251.374 327,249.5C 325.966,254.263 326.799,258.597 329.5,262.5C 329.5,263.167 329.5,263.833 329.5,264.5C 327.229,262.388 325.896,259.721 325.5,256.5C 325.192,250.575 325.525,244.741 326.5,239C 332.786,239.098 338.786,238.931 344.5,238.5C 348.904,239.606 353.237,240.606 357.5,241.5 Z"/></g>
<g><path style="opacity:1" fill="#dfedf7" d="M 348.5,253.5 C 347.025,256.326 345.692,259.326 344.5,262.5C 342.484,263.694 340.484,263.694 338.5,262.5C 337.344,260.176 336.344,257.843 335.5,255.5C 334.09,251.603 333.09,247.603 332.5,243.5C 334.714,243.291 336.381,244.124 337.5,246C 338.736,249.876 340.07,253.71 341.5,257.5C 342.969,253.094 344.636,248.761 346.5,244.5C 347.689,243.571 349.022,243.238 350.5,243.5C 350.149,246.903 349.482,250.237 348.5,253.5 Z"/></g>
<g><path style="opacity:1" fill="#2057a9" d="M 335.5,255.5 C 336.344,257.843 337.344,260.176 338.5,262.5C 335.556,261.412 332.556,261.412 329.5,262.5C 326.799,258.597 325.966,254.263 327,249.5C 329.913,251.374 332.746,253.374 335.5,255.5 Z"/></g>
<g><path style="opacity:1" fill="#a374e8" d="M 442.5,244.5 C 442.446,250.384 441.279,256.051 439,261.5C 435.251,270.668 430.751,279.335 425.5,287.5C 427.441,282.338 428.775,277.005 429.5,271.5C 430.913,266.37 431.913,261.037 432.5,255.5C 433.321,252.359 433.821,249.025 434,245.5C 436.899,245.023 439.566,244.023 442,242.5C 442.464,243.094 442.631,243.761 442.5,244.5 Z"/></g>
<g><path style="opacity:1" fill="#345ea4" d="M 321.5,260.5 C 321.688,263.206 322.688,265.539 324.5,267.5C 323.29,267.932 322.29,268.599 321.5,269.5C 315.297,263.025 313.297,255.358 315.5,246.5C 316.689,245.571 318.022,245.238 319.5,245.5C 319.334,249.514 319.501,253.514 320,257.5C 320.232,258.737 320.732,259.737 321.5,260.5 Z"/></g>
<g><path style="opacity:1" fill="#dbd3f2" d="M 443.5,258.5 C 443.833,258.5 444.167,258.5 444.5,258.5C 444.665,262.182 444.499,265.848 444,269.5C 443.617,270.056 443.117,270.389 442.5,270.5C 442.833,266.5 443.167,262.5 443.5,258.5 Z"/></g>
<g><path style="opacity:1" fill="#2fb8e3" d="M 235.5,255.5 C 236.344,267.026 238.677,278.359 242.5,289.5C 242.335,292.518 242.502,295.518 243,298.5C 245.363,300.581 246.529,303.247 246.5,306.5C 243.975,307.892 241.808,307.558 240,305.5C 240.374,307.769 240.374,310.102 240,312.5C 238.374,312.854 236.541,312.854 234.5,312.5C 234.158,311.662 233.492,311.328 232.5,311.5C 233.614,308.823 233.614,306.156 232.5,303.5C 228.5,301.833 224.5,300.167 220.5,298.5C 218.102,296.37 216.768,293.703 216.5,290.5C 217.455,285.935 218.955,281.602 221,277.5C 225.112,269.587 229.945,262.254 235.5,255.5 Z"/></g>
<g><path style="opacity:1" fill="#31a5e7" d="M 257.5,259.5 C 257.833,259.5 258.167,259.5 258.5,259.5C 258.616,262.86 258.949,266.193 259.5,269.5C 259.841,273.709 260.508,277.875 261.5,282C 260.566,285.154 259.899,284.988 259.5,281.5C 258.167,281.5 256.833,281.5 255.5,281.5C 254.558,278.58 253.224,275.914 251.5,273.5C 249.549,273.227 248.049,273.893 247,275.5C 244.938,272.277 243.104,268.943 241.5,265.5C 246.214,265.827 250.88,265.493 255.5,264.5C 256.028,262.664 256.694,260.997 257.5,259.5 Z"/></g>
<g><path style="opacity:1" fill="#8b6bc2" d="M 412.5,271.5 C 412.008,273.819 411.008,275.819 409.5,277.5C 409.031,274.607 410.031,272.607 412.5,271.5 Z"/></g>
<g><path style="opacity:1" fill="#2f5fcc" d="M 264.5,228.5 C 264.5,229.167 264.5,229.833 264.5,230.5C 263.82,238.902 263.154,247.402 262.5,256C 264.596,261.692 267.596,266.859 271.5,271.5C 271.5,271.833 271.5,272.167 271.5,272.5C 272.023,275.89 272.857,279.223 274,282.5C 275.11,284.037 276.61,284.703 278.5,284.5C 278.582,288.342 280.582,290.342 284.5,290.5C 293.853,301.883 305.52,309.55 319.5,313.5C 319.5,314.167 319.5,314.833 319.5,315.5C 319.5,316.5 319.5,317.5 319.5,318.5C 315.219,317.864 311.219,316.364 307.5,314C 301.616,309.567 295.616,305.401 289.5,301.5C 282.212,294.371 275.379,286.704 269,278.5C 265.248,271.607 261.748,265.273 258.5,259.5C 258.167,259.5 257.833,259.5 257.5,259.5C 257.5,258.833 257.5,258.167 257.5,257.5C 257.425,250.37 257.592,243.037 258,235.5C 258.765,228.102 260.598,221.102 263.5,214.5C 264.117,214.389 264.617,214.056 265,213.5C 265.251,218.501 265.084,223.501 264.5,228.5 Z"/></g>
<g><path style="opacity:1" fill="#713fcc" d="M 429.5,271.5 C 428.775,277.005 427.441,282.338 425.5,287.5C 425.167,287.5 424.833,287.5 424.5,287.5C 424.026,288.73 422.692,289.73 420.5,290.5C 416.509,286.835 412.509,283.169 408.5,279.5C 408.328,278.508 408.662,277.842 409.5,277.5C 411.008,275.819 412.008,273.819 412.5,271.5C 412.741,268.185 413.741,265.185 415.5,262.5C 418.021,260.97 419.021,258.636 418.5,255.5C 419.978,255.238 421.311,255.571 422.5,256.5C 423.616,258.838 424.95,261.004 426.5,263C 425.483,264.049 425.316,265.216 426,266.5C 426.915,267.328 427.581,268.328 428,269.5C 428.333,269.167 428.667,268.833 429,268.5C 429.483,269.448 429.649,270.448 429.5,271.5 Z"/></g>
<g><path style="opacity:1" fill="#446abf" d="M 271.5,272.5 C 275.367,278.926 279.7,284.926 284.5,290.5C 280.582,290.342 278.582,288.342 278.5,284.5C 276.61,284.703 275.11,284.037 274,282.5C 272.857,279.223 272.023,275.89 271.5,272.5 Z"/></g>
<g><path style="opacity:1" fill="#2896df" d="M 241.5,265.5 C 243.104,268.943 244.938,272.277 247,275.5C 248.049,273.893 249.549,273.227 251.5,273.5C 253.224,275.914 254.558,278.58 255.5,281.5C 256.833,281.5 258.167,281.5 259.5,281.5C 259.899,284.988 260.566,285.154 261.5,282C 260.508,277.875 259.841,273.709 259.5,269.5C 261.318,275.5 263.485,281.5 266,287.5C 269.561,294.044 273.394,300.377 277.5,306.5C 277.44,307.043 277.107,307.376 276.5,307.5C 266.953,300.12 258.62,291.62 251.5,282C 248.798,281.893 246.465,282.893 244.5,285C 243.62,286.356 243.286,287.856 243.5,289.5C 243.167,289.5 242.833,289.5 242.5,289.5C 238.677,278.359 236.344,267.026 235.5,255.5C 235.5,255.167 235.5,254.833 235.5,254.5C 236.117,254.389 236.617,254.056 237,253.5C 238.791,257.411 240.291,261.411 241.5,265.5 Z"/></g>
<g><path style="opacity:1" fill="#234792" d="M 360.5,270.5 C 356.396,275.555 351.063,278.555 344.5,279.5C 344.5,280.833 344.5,282.167 344.5,283.5C 343.532,285.607 343.198,287.941 343.5,290.5C 347.5,290.5 351.5,290.5 355.5,290.5C 355.5,291.5 355.5,292.5 355.5,293.5C 345.833,293.5 336.167,293.5 326.5,293.5C 326.33,292.178 326.663,291.011 327.5,290C 331.486,289.501 335.486,289.334 339.5,289.5C 339.5,286.167 339.5,282.833 339.5,279.5C 331.619,279.233 325.619,275.9 321.5,269.5C 322.29,268.599 323.29,267.932 324.5,267.5C 335.626,277.878 346.959,277.878 358.5,267.5C 361.315,266.668 361.982,267.668 360.5,270.5 Z"/></g>
<g><path style="opacity:1" fill="#715ad0" d="M 442.5,244.5 C 442.833,244.5 443.167,244.5 443.5,244.5C 443.5,249.167 443.5,253.833 443.5,258.5C 443.167,262.5 442.833,266.5 442.5,270.5C 441.745,274.764 440.412,278.764 438.5,282.5C 436.313,287.054 434.313,291.721 432.5,296.5C 430.194,296.993 427.861,297.326 425.5,297.5C 425.608,295.486 424.942,293.82 423.5,292.5C 423.5,291.833 423.167,291.5 422.5,291.5C 423.806,290.533 424.473,289.199 424.5,287.5C 424.833,287.5 425.167,287.5 425.5,287.5C 430.751,279.335 435.251,270.668 439,261.5C 441.279,256.051 442.446,250.384 442.5,244.5 Z"/></g>
<g><path style="opacity:1" fill="#5a42c9" d="M 408.5,279.5 C 412.509,283.169 416.509,286.835 420.5,290.5C 422.692,289.73 424.026,288.73 424.5,287.5C 424.473,289.199 423.806,290.533 422.5,291.5C 421.167,292.833 419.833,294.167 418.5,295.5C 416.628,296.511 414.628,297.345 412.5,298C 412.833,298.333 413.167,298.667 413.5,299C 409.709,301.861 406.042,304.861 402.5,308C 400.527,308.495 398.527,308.662 396.5,308.5C 395.414,305.103 394.081,302.27 392.5,300C 393.741,298.269 394.741,296.436 395.5,294.5C 399.833,289.5 404.167,284.5 408.5,279.5 Z"/></g>
<g><path style="opacity:1" fill="#174abb" d="M 289.5,301.5 C 285.395,301.234 281.395,301.734 277.5,303C 279.568,305.642 281.235,308.475 282.5,311.5C 280.605,310.027 278.939,308.36 277.5,306.5C 273.394,300.377 269.561,294.044 266,287.5C 263.485,281.5 261.318,275.5 259.5,269.5C 258.949,266.193 258.616,262.86 258.5,259.5C 261.748,265.273 265.248,271.607 269,278.5C 275.379,286.704 282.212,294.371 289.5,301.5 Z"/></g>
<g><path style="opacity:1" fill="#6c86b3" d="M 344.5,283.5 C 344.5,285.5 344.5,287.5 344.5,289.5C 348.371,289.185 352.038,289.518 355.5,290.5C 351.5,290.5 347.5,290.5 343.5,290.5C 343.198,287.941 343.532,285.607 344.5,283.5 Z"/></g>
<g><path style="opacity:1" fill="#5c769e" d="M 355.5,290.5 C 356.434,291.568 356.768,292.901 356.5,294.5C 346.319,294.827 336.319,294.494 326.5,293.5C 336.167,293.5 345.833,293.5 355.5,293.5C 355.5,292.5 355.5,291.5 355.5,290.5 Z"/></g>
<g><path style="opacity:1" fill="#7d7fc6" d="M 383.5,304.5 C 381.637,306.162 379.637,307.829 377.5,309.5C 376.167,309.5 374.833,309.5 373.5,309.5C 376.368,307.088 379.701,305.421 383.5,304.5 Z"/></g>
<g><path style="opacity:1" fill="#2cafe2" d="M 242.5,289.5 C 242.833,289.5 243.167,289.5 243.5,289.5C 247.494,303.814 254.828,316.148 265.5,326.5C 263.274,327.559 260.941,327.392 258.5,326C 249.92,322.218 241.92,317.718 234.5,312.5C 236.541,312.854 238.374,312.854 240,312.5C 240.374,310.102 240.374,307.769 240,305.5C 241.808,307.558 243.975,307.892 246.5,306.5C 246.529,303.247 245.363,300.581 243,298.5C 242.502,295.518 242.335,292.518 242.5,289.5 Z"/></g>
<g><path style="opacity:1" fill="#6386db" d="M 433.5,297.5 C 432.486,299.574 431.486,301.574 430.5,303.5C 427.708,304.392 426.375,306.392 426.5,309.5C 425.167,309.5 423.833,309.5 422.5,309.5C 422.5,310.833 422.5,312.167 422.5,313.5C 419.892,313.4 417.558,314.067 415.5,315.5C 420.524,310.476 425.191,305.143 429.5,299.5C 430.622,298.37 431.956,297.703 433.5,297.5 Z"/></g>
<g><path style="opacity:1" fill="#5861cc" d="M 438.5,282.5 C 437.686,287.793 436.019,292.793 433.5,297.5C 431.956,297.703 430.622,298.37 429.5,299.5C 425.191,305.143 420.524,310.476 415.5,315.5C 414.448,315.351 413.448,315.517 412.5,316C 410.905,318.102 408.905,319.602 406.5,320.5C 402.721,322.946 398.721,324.946 394.5,326.5C 406.357,316.981 416.024,305.648 423.5,292.5C 424.942,293.82 425.608,295.486 425.5,297.5C 427.861,297.326 430.194,296.993 432.5,296.5C 434.313,291.721 436.313,287.054 438.5,282.5 Z"/></g>
<g><path style="opacity:1" fill="#5049c8" d="M 395.5,294.5 C 394.741,296.436 393.741,298.269 392.5,300C 394.081,302.27 395.414,305.103 396.5,308.5C 398.527,308.662 400.527,308.495 402.5,308C 406.042,304.861 409.709,301.861 413.5,299C 413.167,298.667 412.833,298.333 412.5,298C 414.628,297.345 416.628,296.511 418.5,295.5C 408.098,307.037 395.431,315.037 380.5,319.5C 377.837,318.52 375.837,316.187 374.5,312.5C 375.34,311.265 376.34,310.265 377.5,309.5C 379.637,307.829 381.637,306.162 383.5,304.5C 387.46,301.177 391.46,297.844 395.5,294.5 Z"/></g>
<g><path style="opacity:1" fill="#5664b3" d="M 373.5,309.5 C 366.879,313.653 359.545,316.153 351.5,317C 340.746,317.902 330.079,317.402 319.5,315.5C 319.5,314.833 319.5,314.167 319.5,313.5C 337.914,318.109 355.914,316.776 373.5,309.5 Z"/></g>
<g><path style="opacity:1" fill="#1d7fd2" d="M 277.5,306.5 C 278.939,308.36 280.605,310.027 282.5,311.5C 284.379,311.393 284.712,311.893 283.5,313C 284.705,314.376 286.038,315.542 287.5,316.5C 296.214,324.857 306.214,331.191 317.5,335.5C 316.5,335.5 315.5,335.5 314.5,335.5C 314.5,341.167 314.5,346.833 314.5,352.5C 313.508,352.672 312.842,352.338 312.5,351.5C 313.815,346.32 313.815,340.986 312.5,335.5C 307.889,336.61 303.222,336.777 298.5,336C 289.414,334.93 280.414,333.43 271.5,331.5C 270.109,329.11 268.109,327.443 265.5,326.5C 254.828,316.148 247.494,303.814 243.5,289.5C 243.286,287.856 243.62,286.356 244.5,285C 246.465,282.893 248.798,281.893 251.5,282C 258.62,291.62 266.953,300.12 276.5,307.5C 277.107,307.376 277.44,307.043 277.5,306.5 Z"/></g>
<g><path style="opacity:1" fill="#1840b6" d="M 289.5,301.5 C 295.616,305.401 301.616,309.567 307.5,314C 311.219,316.364 315.219,317.864 319.5,318.5C 325.5,320.833 331.5,323.167 337.5,325.5C 320.173,326.341 303.84,322.674 288.5,314.5C 287.702,314.957 287.369,315.624 287.5,316.5C 286.038,315.542 284.705,314.376 283.5,313C 284.712,311.893 284.379,311.393 282.5,311.5C 281.235,308.475 279.568,305.642 277.5,303C 281.395,301.734 285.395,301.234 289.5,301.5 Z"/></g>
<g><path style="opacity:1" fill="#4157cd" d="M 373.5,309.5 C 374.833,309.5 376.167,309.5 377.5,309.5C 376.34,310.265 375.34,311.265 374.5,312.5C 375.837,316.187 377.837,318.52 380.5,319.5C 377.785,321.072 374.785,322.072 371.5,322.5C 367.034,324.215 362.367,324.882 357.5,324.5C 357.299,320.65 355.466,319.65 352,321.5C 351.51,322.793 351.343,324.127 351.5,325.5C 346.833,325.5 342.167,325.5 337.5,325.5C 331.5,323.167 325.5,320.833 319.5,318.5C 319.5,317.5 319.5,316.5 319.5,315.5C 330.079,317.402 340.746,317.902 351.5,317C 359.545,316.153 366.879,313.653 373.5,309.5 Z"/></g>
<g><path style="opacity:1" fill="#27259d" d="M 422.5,291.5 C 423.167,291.5 423.5,291.833 423.5,292.5C 416.024,305.648 406.357,316.981 394.5,326.5C 393.391,326.557 392.391,326.89 391.5,327.5C 388.507,328.135 385.507,328.301 382.5,328C 379.086,325.361 375.42,323.527 371.5,322.5C 374.785,322.072 377.785,321.072 380.5,319.5C 395.431,315.037 408.098,307.037 418.5,295.5C 419.833,294.167 421.167,292.833 422.5,291.5 Z"/></g>
<g><path style="opacity:1" fill="#0e31a2" d="M 337.5,325.5 C 342.167,325.5 346.833,325.5 351.5,325.5C 352.117,325.611 352.617,325.944 353,326.5C 353.499,330.821 353.666,335.154 353.5,339.5C 353.5,339.833 353.5,340.167 353.5,340.5C 351.833,340.5 350.167,340.5 348.5,340.5C 347.207,338.704 345.707,337.037 344,335.5C 344.534,330.533 342.367,328.533 337.5,329.5C 337.201,331.604 337.534,333.604 338.5,335.5C 340.9,336.018 342.9,337.185 344.5,339C 344,339.5 343.5,340 343,340.5C 334.404,339.428 325.904,337.761 317.5,335.5C 306.214,331.191 296.214,324.857 287.5,316.5C 287.369,315.624 287.702,314.957 288.5,314.5C 303.84,322.674 320.173,326.341 337.5,325.5 Z"/></g>
<g><path style="opacity:1" fill="#5a90e1" d="M 357.5,324.5 C 357.217,325.289 356.717,325.956 356,326.5C 355.501,330.821 355.334,335.154 355.5,339.5C 354.833,339.5 354.167,339.5 353.5,339.5C 353.666,335.154 353.499,330.821 353,326.5C 352.617,325.944 352.117,325.611 351.5,325.5C 351.343,324.127 351.51,322.793 352,321.5C 355.466,319.65 357.299,320.65 357.5,324.5 Z"/></g>
<g><path style="opacity:1" fill="#2793d1" d="M 232.5,311.5 C 233.492,311.328 234.158,311.662 234.5,312.5C 241.92,317.718 249.92,322.218 258.5,326C 260.941,327.392 263.274,327.559 265.5,326.5C 268.109,327.443 270.109,329.11 271.5,331.5C 279.128,338.287 287.461,344.12 296.5,349C 300.014,350.562 303.681,351.395 307.5,351.5C 307.167,352.167 306.833,352.833 306.5,353.5C 305.609,354.11 304.609,354.443 303.5,354.5C 301.833,354.5 300.167,354.5 298.5,354.5C 298.961,358.212 299.627,361.879 300.5,365.5C 299.9,364.1 298.9,363.1 297.5,362.5C 297.007,360.194 296.674,357.861 296.5,355.5C 295.07,355.579 293.736,355.246 292.5,354.5C 290.201,357.014 287.868,357.014 285.5,354.5C 283.568,355.52 281.568,355.687 279.5,355C 280.793,354.51 282.127,354.343 283.5,354.5C 283.5,353.167 283.5,351.833 283.5,350.5C 280.873,349.908 278.206,349.575 275.5,349.5C 275.561,351.592 276.561,353.092 278.5,354C 277.175,353.852 276.008,354.018 275,354.5C 267.928,350.428 260.428,346.761 252.5,343.5C 252.762,342.022 252.429,340.689 251.5,339.5C 249.135,339.795 246.969,341.128 245,343.5C 244.228,343.355 243.561,343.022 243,342.5C 242.358,346.491 241.858,350.491 241.5,354.5C 241.104,349.345 240.937,344.012 241,338.5C 239.237,336.281 237.237,334.281 235,332.5C 234.397,329.344 234.897,326.344 236.5,323.5C 235.185,321.684 233.685,320.017 232,318.5C 231.297,316.071 231.463,313.738 232.5,311.5 Z"/></g>
<g><path style="opacity:1" fill="#182b9b" d="M 371.5,322.5 C 375.42,323.527 379.086,325.361 382.5,328C 385.507,328.301 388.507,328.135 391.5,327.5C 382.707,333.129 373.041,336.796 362.5,338.5C 364.949,333.159 363.282,330.825 357.5,331.5C 357.366,333.292 357.699,334.958 358.5,336.5C 358.557,337.609 358.89,338.609 359.5,339.5C 358.167,339.5 356.833,339.5 355.5,339.5C 355.334,335.154 355.501,330.821 356,326.5C 356.717,325.956 357.217,325.289 357.5,324.5C 362.367,324.882 367.034,324.215 371.5,322.5 Z"/></g>
<g><path style="opacity:1" fill="#3b6bcb" d="M 362.5,338.5 C 361.533,337.194 360.199,336.527 358.5,336.5C 357.699,334.958 357.366,333.292 357.5,331.5C 363.282,330.825 364.949,333.159 362.5,338.5 Z"/></g>
<g><path style="opacity:1" fill="#1865c0" d="M 271.5,331.5 C 280.414,333.43 289.414,334.93 298.5,336C 303.222,336.777 307.889,336.61 312.5,335.5C 313.815,340.986 313.815,346.32 312.5,351.5C 310.833,351.5 309.167,351.5 307.5,351.5C 303.681,351.395 300.014,350.562 296.5,349C 287.461,344.12 279.128,338.287 271.5,331.5 Z"/></g>
<g><path style="opacity:1" fill="#1f6dc2" d="M 348.5,340.5 C 346.666,342.533 345.333,345.033 344.5,348C 346.072,350.919 346.739,354.085 346.5,357.5C 346.167,357.5 345.833,357.5 345.5,357.5C 340.833,357.5 336.167,357.5 331.5,357.5C 331.768,355.901 331.434,354.568 330.5,353.5C 327.918,353.025 325.918,353.692 324.5,355.5C 322.167,355.5 319.833,355.5 317.5,355.5C 317.5,348.833 317.5,342.167 317.5,335.5C 325.904,337.761 334.404,339.428 343,340.5C 343.5,340 344,339.5 344.5,339C 342.9,337.185 340.9,336.018 338.5,335.5C 337.534,333.604 337.201,331.604 337.5,329.5C 342.367,328.533 344.534,330.533 344,335.5C 345.707,337.037 347.207,338.704 348.5,340.5 Z"/></g>
<g><path style="opacity:1" fill="#3488ce" d="M 430.5,303.5 C 424.937,312.73 418.603,321.396 411.5,329.5C 404.987,333.541 398.653,338.041 392.5,343C 389.222,344.809 385.889,346.309 382.5,347.5C 381.212,344.132 380.045,340.798 379,337.5C 387.759,332.288 396.759,327.621 406,323.5C 406.483,322.552 406.649,321.552 406.5,320.5C 408.905,319.602 410.905,318.102 412.5,316C 413.448,315.517 414.448,315.351 415.5,315.5C 417.558,314.067 419.892,313.4 422.5,313.5C 422.5,312.167 422.5,310.833 422.5,309.5C 423.833,309.5 425.167,309.5 426.5,309.5C 426.375,306.392 427.708,304.392 430.5,303.5 Z"/></g>
<g><path style="opacity:1" fill="#2a7fcc" d="M 406.5,320.5 C 406.649,321.552 406.483,322.552 406,323.5C 396.759,327.621 387.759,332.288 379,337.5C 380.045,340.798 381.212,344.132 382.5,347.5C 374.961,348.624 368.294,350.291 362.5,352.5C 362.817,348.298 362.483,344.298 361.5,340.5C 361.158,339.662 360.492,339.328 359.5,339.5C 358.89,338.609 358.557,337.609 358.5,336.5C 360.199,336.527 361.533,337.194 362.5,338.5C 373.041,336.796 382.707,333.129 391.5,327.5C 392.391,326.89 393.391,326.557 394.5,326.5C 398.721,324.946 402.721,322.946 406.5,320.5 Z"/></g>
<g><path style="opacity:1" fill="#63cff7" d="M 353.5,339.5 C 354.167,339.5 354.833,339.5 355.5,339.5C 355.5,345.167 355.5,350.833 355.5,356.5C 354.833,356.5 354.167,356.5 353.5,356.5C 353.5,351.167 353.5,345.833 353.5,340.5C 353.5,340.167 353.5,339.833 353.5,339.5 Z"/></g>
<g><path style="opacity:1" fill="#176eb9" d="M 348.5,340.5 C 350.167,340.5 351.833,340.5 353.5,340.5C 353.5,345.833 353.5,351.167 353.5,356.5C 353.5,356.833 353.5,357.167 353.5,357.5C 351.833,357.5 350.167,357.5 348.5,357.5C 348.208,354.235 348.875,351.235 350.5,348.5C 348.951,346.098 348.284,343.432 348.5,340.5 Z"/></g>
<g><path style="opacity:1" fill="#51b9ef" d="M 348.5,340.5 C 348.284,343.432 348.951,346.098 350.5,348.5C 348.875,351.235 348.208,354.235 348.5,357.5C 348.167,357.5 347.833,357.5 347.5,357.5C 347.167,357.5 346.833,357.5 346.5,357.5C 346.739,354.085 346.072,350.919 344.5,348C 345.333,345.033 346.666,342.533 348.5,340.5 Z"/></g>
<g><path style="opacity:1" fill="#46c7e3" d="M 411.5,329.5 C 411.5,330.5 411.5,331.5 411.5,332.5C 410.07,332.421 408.736,332.754 407.5,333.5C 405.153,337.351 401.82,339.851 397.5,341C 393.975,343.698 390.642,346.531 387.5,349.5C 383.616,349.424 379.95,350.09 376.5,351.5C 378.5,350.167 380.5,348.833 382.5,347.5C 385.889,346.309 389.222,344.809 392.5,343C 398.653,338.041 404.987,333.541 411.5,329.5 Z"/></g>
<g><path style="opacity:1" fill="#1f80c1" d="M 355.5,339.5 C 356.833,339.5 358.167,339.5 359.5,339.5C 359.5,344.5 359.5,349.5 359.5,354.5C 358.533,355.806 357.199,356.473 355.5,356.5C 355.5,350.833 355.5,345.167 355.5,339.5 Z"/></g>
<g><path style="opacity:1" fill="#78defd" d="M 359.5,339.5 C 360.492,339.328 361.158,339.662 361.5,340.5C 361.5,345.167 361.5,349.833 361.5,354.5C 361.5,354.833 361.5,355.167 361.5,355.5C 360.833,355.5 360.167,355.5 359.5,355.5C 359.5,355.167 359.5,354.833 359.5,354.5C 359.5,349.5 359.5,344.5 359.5,339.5 Z"/></g>
<g><path style="opacity:1" fill="#2788cc" d="M 297.5,362.5 C 294.377,363.705 291.71,365.705 289.5,368.5C 288.749,367.624 288.249,366.624 288,365.5C 286.246,367.25 284.079,367.917 281.5,367.5C 279.94,365.23 277.94,364.563 275.5,365.5C 271.648,363.82 267.981,361.82 264.5,359.5C 260.347,359.796 256.347,358.796 252.5,356.5C 250.497,354.867 249.164,352.867 248.5,350.5C 246.54,349.862 244.707,349.862 243,350.5C 242.505,353.531 242.671,356.531 243.5,359.5C 242.069,358.22 241.402,356.553 241.5,354.5C 241.858,350.491 242.358,346.491 243,342.5C 243.561,343.022 244.228,343.355 245,343.5C 246.969,341.128 249.135,339.795 251.5,339.5C 252.429,340.689 252.762,342.022 252.5,343.5C 260.428,346.761 267.928,350.428 275,354.5C 276.008,354.018 277.175,353.852 278.5,354C 276.561,353.092 275.561,351.592 275.5,349.5C 278.206,349.575 280.873,349.908 283.5,350.5C 283.5,351.833 283.5,353.167 283.5,354.5C 282.127,354.343 280.793,354.51 279.5,355C 281.568,355.687 283.568,355.52 285.5,354.5C 287.868,357.014 290.201,357.014 292.5,354.5C 293.736,355.246 295.07,355.579 296.5,355.5C 296.674,357.861 297.007,360.194 297.5,362.5 Z"/></g>
<g><path style="opacity:1" fill="#1f83c2" d="M 361.5,340.5 C 362.483,344.298 362.817,348.298 362.5,352.5C 368.294,350.291 374.961,348.624 382.5,347.5C 380.5,348.833 378.5,350.167 376.5,351.5C 375.833,351.5 375.167,351.5 374.5,351.5C 370.327,353.112 365.993,354.112 361.5,354.5C 361.5,349.833 361.5,345.167 361.5,340.5 Z"/></g>
<g><path style="opacity:1" fill="#4ed6dd" d="M 411.5,332.5 C 411.233,334.965 410.566,337.299 409.5,339.5C 407.92,341.717 406.92,344.384 406.5,347.5C 404.183,349.316 402.016,351.316 400,353.5C 399.828,360.346 399.328,367.013 398.5,373.5C 398.792,367.705 398.125,362.039 396.5,356.5C 396.167,356.167 395.833,355.833 395.5,355.5C 394.833,359.647 394.166,363.647 393.5,367.5C 393.5,363.167 393.5,358.833 393.5,354.5C 392.167,354.5 390.833,354.5 389.5,354.5C 387.744,353.448 387.077,351.781 387.5,349.5C 390.642,346.531 393.975,343.698 397.5,341C 401.82,339.851 405.153,337.351 407.5,333.5C 408.736,332.754 410.07,332.421 411.5,332.5 Z"/></g>
<g><path style="opacity:1" fill="#36c6d1" d="M 387.5,349.5 C 387.077,351.781 387.744,353.448 389.5,354.5C 389.5,360.833 389.5,367.167 389.5,373.5C 390.833,373.5 392.167,373.5 393.5,373.5C 393.5,371.5 393.5,369.5 393.5,367.5C 394.166,363.647 394.833,359.647 395.5,355.5C 395.833,355.833 396.167,356.167 396.5,356.5C 398.125,362.039 398.792,367.705 398.5,373.5C 401.94,384.751 397.94,390.418 386.5,390.5C 386.956,386.889 386.289,383.556 384.5,380.5C 385.274,379.289 386.107,379.289 387,380.5C 387.487,376.707 385.987,375.707 382.5,377.5C 381.646,375.965 381.646,374.632 382.5,373.5C 383.5,373.5 384.5,373.5 385.5,373.5C 384.78,367.171 382.946,361.171 380,355.5C 377.094,353.933 374.928,354.6 373.5,357.5C 373.833,355.5 374.167,353.5 374.5,351.5C 375.167,351.5 375.833,351.5 376.5,351.5C 379.95,350.09 383.616,349.424 387.5,349.5 Z"/></g>
<g><path style="opacity:1" fill="#2177c4" d="M 281.5,367.5 C 271.5,367.5 261.5,367.5 251.5,367.5C 247.13,366.464 244.464,363.797 243.5,359.5C 242.671,356.531 242.505,353.531 243,350.5C 244.707,349.862 246.54,349.862 248.5,350.5C 249.164,352.867 250.497,354.867 252.5,356.5C 256.347,358.796 260.347,359.796 264.5,359.5C 267.981,361.82 271.648,363.82 275.5,365.5C 277.94,364.563 279.94,365.23 281.5,367.5 Z"/></g>
<g><path style="opacity:1" fill="#2396cd" d="M 317.5,355.5 C 319.833,355.5 322.167,355.5 324.5,355.5C 326.213,359.924 326.88,364.591 326.5,369.5C 326.719,370.675 326.386,371.675 325.5,372.5C 323.736,370.722 321.736,369.389 319.5,368.5C 317.666,364.486 316.999,360.153 317.5,355.5 Z"/></g>
<g><path style="opacity:1" fill="#2398cb" d="M 330.5,353.5 C 331.434,354.568 331.768,355.901 331.5,357.5C 336.167,357.5 340.833,357.5 345.5,357.5C 345.5,360.167 345.5,362.833 345.5,365.5C 342.833,364.167 340.167,364.167 337.5,365.5C 337.5,363.833 337.5,362.167 337.5,360.5C 334.789,360.815 332.456,360.148 330.5,358.5C 330.5,356.833 330.5,355.167 330.5,353.5 Z"/></g>
<g><path style="opacity:1" fill="#65d9f6" d="M 303.5,354.5 C 303.923,355.265 304.257,356.098 304.5,357C 302.958,360.035 302.458,363.202 303,366.5C 308,371.5 313,376.5 318,381.5C 318.17,391.675 318.67,401.675 319.5,411.5C 319.158,412.338 318.492,412.672 317.5,412.5C 317.666,402.828 317.5,393.161 317,383.5C 312.658,378.991 308.158,374.658 303.5,370.5C 302.89,368.566 301.89,366.899 300.5,365.5C 299.627,361.879 298.961,358.212 298.5,354.5C 300.167,354.5 301.833,354.5 303.5,354.5 Z"/></g>
<g><path style="opacity:1" fill="#dcfafa" d="M 382.5,373.5 C 382.199,370.641 380.533,369.307 377.5,369.5C 374.481,370.309 371.815,371.642 369.5,373.5C 370.216,368.017 371.55,362.683 373.5,357.5C 374.928,354.6 377.094,353.933 380,355.5C 382.946,361.171 384.78,367.171 385.5,373.5C 384.5,373.5 383.5,373.5 382.5,373.5 Z"/></g>
<g><path style="opacity:1" fill="#68c5c7" d="M 376.5,359.5 C 378.969,360.607 379.969,362.607 379.5,365.5C 378.022,365.762 376.689,365.429 375.5,364.5C 376.309,362.929 376.643,361.262 376.5,359.5 Z"/></g>
<g><path style="opacity:1" fill="#62dbf1" d="M 330.5,353.5 C 330.5,355.167 330.5,356.833 330.5,358.5C 329.357,361.976 329.19,365.642 330,369.5C 333.667,374.5 338,378.833 343,382.5C 342.865,389.905 343.698,396.905 345.5,403.5C 344.833,404.167 344.167,404.833 343.5,405.5C 342.833,405.5 342.167,405.5 341.5,405.5C 341.666,398.159 341.5,390.826 341,383.5C 336.038,378.941 331.205,374.275 326.5,369.5C 326.88,364.591 326.213,359.924 324.5,355.5C 325.918,353.692 327.918,353.025 330.5,353.5 Z"/></g>
<g><path style="opacity:1" fill="#30b5cf" d="M 348.5,357.5 C 350.167,357.5 351.833,357.5 353.5,357.5C 353.334,361.514 353.501,365.514 354,369.5C 360,375.5 366,381.5 372,387.5C 372.498,390.482 372.665,393.482 372.5,396.5C 371.5,396.5 370.5,396.5 369.5,396.5C 369.813,393.753 369.48,391.086 368.5,388.5C 362.181,382.682 356.014,376.682 350,370.5C 348.71,366.27 348.21,361.936 348.5,357.5 Z"/></g>
<g><path style="opacity:1" fill="#ddfbfa" d="M 389.5,354.5 C 390.833,354.5 392.167,354.5 393.5,354.5C 393.5,358.833 393.5,363.167 393.5,367.5C 393.5,369.5 393.5,371.5 393.5,373.5C 392.167,373.5 390.833,373.5 389.5,373.5C 389.5,367.167 389.5,360.833 389.5,354.5 Z"/></g>
<g><path style="opacity:1" fill="#5ebfe2" d="M 296.5,374.5 C 294.01,372.644 291.344,371.31 288.5,370.5C 290.824,370.338 292.491,369.172 293.5,367C 296.237,365.92 297.904,366.754 298.5,369.5C 298.098,371.3 297.431,372.967 296.5,374.5 Z"/></g>
<g><path style="opacity:1" fill="#51c6e9" d="M 306.5,353.5 C 307.756,353.904 308.923,354.571 310,355.5C 310.945,355.095 311.612,354.428 312,353.5C 311.562,358.797 311.562,364.13 312,369.5C 316.648,372.736 320.482,376.736 323.5,381.5C 323.03,382.463 322.363,382.463 321.5,381.5C 317.836,377.003 313.669,373.003 309,369.5C 308.637,364.049 307.804,358.716 306.5,353.5 Z"/></g>
<g><path style="opacity:1" fill="#8ff3f5" d="M 409.5,339.5 C 408.62,346.123 408.287,352.789 408.5,359.5C 407.679,356.359 407.179,353.025 407,349.5C 405.333,351.167 403.667,352.833 402,354.5C 400.688,365.122 400.188,375.789 400.5,386.5C 401.5,386.5 402.5,386.5 403.5,386.5C 397.665,389.665 391.331,391.665 384.5,392.5C 384.701,387.29 384.034,382.29 382.5,377.5C 385.987,375.707 387.487,376.707 387,380.5C 386.107,379.289 385.274,379.289 384.5,380.5C 386.289,383.556 386.956,386.889 386.5,390.5C 397.94,390.418 401.94,384.751 398.5,373.5C 399.328,367.013 399.828,360.346 400,353.5C 402.016,351.316 404.183,349.316 406.5,347.5C 406.92,344.384 407.92,341.717 409.5,339.5 Z"/></g>
<g><path style="opacity:1" fill="#2495c0" d="M 307.5,351.5 C 309.167,351.5 310.833,351.5 312.5,351.5C 312.842,352.338 313.508,352.672 314.5,352.5C 314.334,357.511 314.501,362.511 315,367.5C 320.432,372.425 325.265,377.758 329.5,383.5C 328.265,383.279 327.265,382.612 326.5,381.5C 325.452,382.383 324.285,383.05 323,383.5C 321.97,383.164 321.47,382.497 321.5,381.5C 322.363,382.463 323.03,382.463 323.5,381.5C 320.482,376.736 316.648,372.736 312,369.5C 311.562,364.13 311.562,358.797 312,353.5C 311.612,354.428 310.945,355.095 310,355.5C 308.923,354.571 307.756,353.904 306.5,353.5C 306.833,352.833 307.167,352.167 307.5,351.5 Z"/></g>
<g><path style="opacity:1" fill="#62e2f1" d="M 347.5,357.5 C 347.833,357.5 348.167,357.5 348.5,357.5C 348.21,361.936 348.71,366.27 350,370.5C 356.014,376.682 362.181,382.682 368.5,388.5C 369.48,391.086 369.813,393.753 369.5,396.5C 368.391,396.557 367.391,396.89 366.5,397.5C 366.664,394.813 366.497,392.146 366,389.5C 360,383.5 354,377.5 348,371.5C 347.501,366.845 347.334,362.179 347.5,357.5 Z"/></g>
<g><path style="opacity:1" fill="#2694bf" d="M 306.5,353.5 C 307.804,358.716 308.637,364.049 309,369.5C 313.669,373.003 317.836,377.003 321.5,381.5C 320.883,381.611 320.383,381.944 320,382.5C 319.5,392.161 319.334,401.828 319.5,411.5C 318.67,401.675 318.17,391.675 318,381.5C 313,376.5 308,371.5 303,366.5C 302.458,363.202 302.958,360.035 304.5,357C 304.257,356.098 303.923,355.265 303.5,354.5C 304.609,354.443 305.609,354.11 306.5,353.5 Z"/></g>
<g><path style="opacity:1" fill="#5fd0f0" d="M 317.5,335.5 C 317.5,342.167 317.5,348.833 317.5,355.5C 316.999,360.153 317.666,364.486 319.5,368.5C 325.503,374.004 331.003,380.004 336,386.5C 336.792,393.247 336.626,399.914 335.5,406.5C 335.5,407.167 335.167,407.5 334.5,407.5C 334.666,400.492 334.5,393.492 334,386.5C 332.961,385.29 331.794,384.29 330.5,383.5C 330.167,383.5 329.833,383.5 329.5,383.5C 325.265,377.758 320.432,372.425 315,367.5C 314.501,362.511 314.334,357.511 314.5,352.5C 314.5,346.833 314.5,341.167 314.5,335.5C 315.5,335.5 316.5,335.5 317.5,335.5 Z"/></g>
<g><path style="opacity:1" fill="#70edf4" d="M 353.5,356.5 C 354.167,356.5 354.833,356.5 355.5,356.5C 355.334,360.846 355.501,365.179 356,369.5C 362.302,374.801 368.302,380.468 374,386.5C 374.493,389.675 375.66,392.341 377.5,394.5C 376.07,395.537 374.403,396.204 372.5,396.5C 372.665,393.482 372.498,390.482 372,387.5C 366,381.5 360,375.5 354,369.5C 353.501,365.514 353.334,361.514 353.5,357.5C 353.5,357.167 353.5,356.833 353.5,356.5 Z"/></g>
<g><path style="opacity:1" fill="#48ced3" d="M 408.5,359.5 C 408.681,366.951 409.681,374.285 411.5,381.5C 411.48,382.726 411.147,383.726 410.5,384.5C 409.178,384.67 408.011,384.337 407,383.5C 406.28,377.639 406.446,371.806 407.5,366C 405.544,361.342 403.544,361.509 401.5,366.5C 402.145,367.646 402.978,368.646 404,369.5C 404.499,375.157 404.666,380.824 404.5,386.5C 404.167,386.5 403.833,386.5 403.5,386.5C 402.5,386.5 401.5,386.5 400.5,386.5C 400.188,375.789 400.688,365.122 402,354.5C 403.667,352.833 405.333,351.167 407,349.5C 407.179,353.025 407.679,356.359 408.5,359.5 Z"/></g>
<g><path style="opacity:1" fill="#85f3f3" d="M 410.5,384.5 C 408.626,385.285 406.626,385.952 404.5,386.5C 404.666,380.824 404.499,375.157 404,369.5C 402.978,368.646 402.145,367.646 401.5,366.5C 403.544,361.509 405.544,361.342 407.5,366C 406.446,371.806 406.28,377.639 407,383.5C 408.011,384.337 409.178,384.67 410.5,384.5 Z"/></g>
<g><path style="opacity:1" fill="#3287c2" d="M 297.5,362.5 C 298.9,363.1 299.9,364.1 300.5,365.5C 301.89,366.899 302.89,368.566 303.5,370.5C 306.699,375.048 310.365,379.382 314.5,383.5C 314.833,385 315.167,386.5 315.5,388C 315.431,389.986 314.765,391.486 313.5,392.5C 311.519,390.856 309.519,389.19 307.5,387.5C 307.284,382.281 304.618,379.947 299.5,380.5C 298.529,378.517 297.529,376.517 296.5,374.5C 297.431,372.967 298.098,371.3 298.5,369.5C 297.904,366.754 296.237,365.92 293.5,367C 292.491,369.172 290.824,370.338 288.5,370.5C 276.044,369.86 263.71,368.86 251.5,367.5C 261.5,367.5 271.5,367.5 281.5,367.5C 284.079,367.917 286.246,367.25 288,365.5C 288.249,366.624 288.749,367.624 289.5,368.5C 291.71,365.705 294.377,363.705 297.5,362.5 Z"/></g>
<g><path style="opacity:1" fill="#31b9ca" d="M 359.5,354.5 C 359.5,354.833 359.5,355.167 359.5,355.5C 359.334,359.846 359.501,364.179 360,368.5C 365.333,373.833 370.667,379.167 376,384.5C 377.149,387.393 377.649,390.393 377.5,393.5C 377.5,393.833 377.5,394.167 377.5,394.5C 375.66,392.341 374.493,389.675 374,386.5C 368.302,380.468 362.302,374.801 356,369.5C 355.501,365.179 355.334,360.846 355.5,356.5C 357.199,356.473 358.533,355.806 359.5,354.5 Z"/></g>
<g><path style="opacity:1" fill="#26a0c5" d="M 345.5,357.5 C 345.833,357.5 346.167,357.5 346.5,357.5C 346.833,357.5 347.167,357.5 347.5,357.5C 347.334,362.179 347.501,366.845 348,371.5C 354,377.5 360,383.5 366,389.5C 366.497,392.146 366.664,394.813 366.5,397.5C 361.543,398.989 356.543,400.323 351.5,401.5C 351.795,397.487 352.795,393.654 354.5,390C 354.138,388.115 352.971,387.281 351,387.5C 349.129,387.709 347.962,388.709 347.5,390.5C 349.584,393.831 350.584,397.497 350.5,401.5C 349.07,402.537 347.403,403.204 345.5,403.5C 343.698,396.905 342.865,389.905 343,382.5C 338,378.833 333.667,374.5 330,369.5C 329.19,365.642 329.357,361.976 330.5,358.5C 332.456,360.148 334.789,360.815 337.5,360.5C 337.5,362.167 337.5,363.833 337.5,365.5C 340.167,364.167 342.833,364.167 345.5,365.5C 345.5,362.833 345.5,360.167 345.5,357.5 Z"/></g>
<g><path style="opacity:1" fill="#59d7f1" d="M 337.5,365.5 C 341.854,372.365 347.187,378.532 353.5,384C 353,384.5 352.5,385 352,385.5C 347.2,379.698 342.033,374.198 336.5,369C 331.363,369.547 329.697,367.547 331.5,363C 334.34,362.034 336.34,362.867 337.5,365.5 Z"/></g>
<g><path style="opacity:1" fill="#2088c0" d="M 321.5,381.5 C 321.47,382.497 321.97,383.164 323,383.5C 324.285,383.05 325.452,382.383 326.5,381.5C 327.265,382.612 328.265,383.279 329.5,383.5C 329.833,383.5 330.167,383.5 330.5,383.5C 332.353,390.994 333.02,398.661 332.5,406.5C 331.5,406.5 330.5,406.5 329.5,406.5C 329.5,403.5 329.5,400.5 329.5,397.5C 330.887,395.511 330.553,393.678 328.5,392C 326.888,391.28 325.388,391.446 324,392.5C 324.966,398.395 325.466,404.395 325.5,410.5C 323.435,410.517 321.435,410.85 319.5,411.5C 319.334,401.828 319.5,392.161 320,382.5C 320.383,381.944 320.883,381.611 321.5,381.5 Z"/></g>
<g><path style="opacity:1" fill="#2bb7cb" d="M 374.5,351.5 C 374.167,353.5 373.833,355.5 373.5,357.5C 371.55,362.683 370.216,368.017 369.5,373.5C 371.815,371.642 374.481,370.309 377.5,369.5C 380.533,369.307 382.199,370.641 382.5,373.5C 381.646,374.632 381.646,375.965 382.5,377.5C 384.034,382.29 384.701,387.29 384.5,392.5C 383.167,392.5 381.833,392.5 380.5,392.5C 380.067,389.834 379.567,387.168 379,384.5C 373.248,378.816 367.581,373.15 362,367.5C 361.501,363.514 361.334,359.514 361.5,355.5C 361.5,355.167 361.5,354.833 361.5,354.5C 365.993,354.112 370.327,353.112 374.5,351.5 Z"/></g>
<g><path style="opacity:1" fill="#65cae4" d="M 299.5,380.5 C 304.618,379.947 307.284,382.281 307.5,387.5C 309.519,389.19 311.519,390.856 313.5,392.5C 314.46,399.078 314.793,405.745 314.5,412.5C 315.5,412.5 316.5,412.5 317.5,412.5C 314.582,413.365 311.582,414.365 308.5,415.5C 307.914,415.291 307.414,414.957 307,414.5C 306.503,412.19 306.337,409.857 306.5,407.5C 306.915,403.625 306.415,399.958 305,396.5C 304.517,397.448 304.351,398.448 304.5,399.5C 304.167,399.5 303.833,399.5 303.5,399.5C 303.366,397.708 303.699,396.042 304.5,394.5C 306.017,394.511 307.184,395.177 308,396.5C 308.446,402.294 309.446,407.96 311,413.5C 311.667,406.833 311.667,400.167 311,393.5C 308.499,390.152 305.332,387.818 301.5,386.5C 300.833,384.5 300.167,382.5 299.5,380.5 Z"/></g>
<g><path style="opacity:1" fill="#299cc4" d="M 319.5,368.5 C 321.736,369.389 323.736,370.722 325.5,372.5C 326.386,371.675 326.719,370.675 326.5,369.5C 331.205,374.275 336.038,378.941 341,383.5C 341.5,390.826 341.666,398.159 341.5,405.5C 339.565,406.15 337.565,406.483 335.5,406.5C 336.626,399.914 336.792,393.247 336,386.5C 331.003,380.004 325.503,374.004 319.5,368.5 Z"/></g>
<g><path style="opacity:1" fill="#64edf4" d="M 359.5,355.5 C 360.167,355.5 360.833,355.5 361.5,355.5C 361.334,359.514 361.501,363.514 362,367.5C 367.581,373.15 373.248,378.816 379,384.5C 379.567,387.168 380.067,389.834 380.5,392.5C 379.609,393.11 378.609,393.443 377.5,393.5C 377.649,390.393 377.149,387.393 376,384.5C 370.667,379.167 365.333,373.833 360,368.5C 359.501,364.179 359.334,359.846 359.5,355.5 Z"/></g>
<g><path style="opacity:1" fill="#228bbb" d="M 303.5,370.5 C 308.158,374.658 312.658,378.991 317,383.5C 317.5,393.161 317.666,402.828 317.5,412.5C 316.5,412.5 315.5,412.5 314.5,412.5C 314.793,405.745 314.46,399.078 313.5,392.5C 314.765,391.486 315.431,389.986 315.5,388C 315.167,386.5 314.833,385 314.5,383.5C 310.365,379.382 306.699,375.048 303.5,370.5 Z"/></g>
<g><path style="opacity:1" fill="#67ddef" d="M 351.5,401.5 C 351.167,401.5 350.833,401.5 350.5,401.5C 350.584,397.497 349.584,393.831 347.5,390.5C 347.962,388.709 349.129,387.709 351,387.5C 352.971,387.281 354.138,388.115 354.5,390C 352.795,393.654 351.795,397.487 351.5,401.5 Z"/></g>
<g><path style="opacity:1" fill="#2281b3" d="M 301.5,386.5 C 305.332,387.818 308.499,390.152 311,393.5C 311.667,400.167 311.667,406.833 311,413.5C 309.446,407.96 308.446,402.294 308,396.5C 307.184,395.177 306.017,394.511 304.5,394.5C 302.94,392.046 301.94,389.38 301.5,386.5 Z"/></g>
<g><path style="opacity:1" fill="#67d3ef" d="M 329.5,397.5 C 327.974,398.492 327.307,399.992 327.5,402C 327.497,404.484 328.163,406.651 329.5,408.5C 328.329,409.345 326.995,410.011 325.5,410.5C 325.466,404.395 324.966,398.395 324,392.5C 325.388,391.446 326.888,391.28 328.5,392C 330.553,393.678 330.887,395.511 329.5,397.5 Z"/></g>
<g><path style="opacity:1" fill="#2f94be" d="M 330.5,383.5 C 331.794,384.29 332.961,385.29 334,386.5C 334.5,393.492 334.666,400.492 334.5,407.5C 333.081,408.451 331.415,408.784 329.5,408.5C 328.163,406.651 327.497,404.484 327.5,402C 327.307,399.992 327.974,398.492 329.5,397.5C 329.5,400.5 329.5,403.5 329.5,406.5C 330.5,406.5 331.5,406.5 332.5,406.5C 333.02,398.661 332.353,390.994 330.5,383.5 Z"/></g>
<g><path style="opacity:1" fill="#37749e" d="M 306.5,407.5 C 305.232,405.095 304.565,402.428 304.5,399.5C 304.351,398.448 304.517,397.448 305,396.5C 306.415,399.958 306.915,403.625 306.5,407.5 Z"/></g>
<g><path style="opacity:1" fill="#f2f7f9" d="M 303.5,399.5 C 303.833,399.5 304.167,399.5 304.5,399.5C 304.565,402.428 305.232,405.095 306.5,407.5C 306.337,409.857 306.503,412.19 307,414.5C 307.414,414.957 307.914,415.291 308.5,415.5C 311.582,414.365 314.582,413.365 317.5,412.5C 318.492,412.672 319.158,412.338 319.5,411.5C 321.435,410.85 323.435,410.517 325.5,410.5C 326.995,410.011 328.329,409.345 329.5,408.5C 331.415,408.784 333.081,408.451 334.5,407.5C 335.167,407.5 335.5,407.167 335.5,406.5C 337.565,406.483 339.565,406.15 341.5,405.5C 342.167,405.5 342.833,405.5 343.5,405.5C 343.047,406.458 342.381,407.292 341.5,408C 334.914,408.814 328.581,410.314 322.5,412.5C 322.671,415.797 322.005,416.131 320.5,413.5C 318.253,414.374 315.92,414.708 313.5,414.5C 313.477,417.121 314.811,418.455 317.5,418.5C 337.397,417.995 357.23,417.661 377,417.5C 395.71,420.963 414.377,421.963 433,420.5C 441.34,422.835 449.84,424.335 458.5,425C 461.037,426.892 462.703,428.892 463.5,431C 458.202,432.159 452.869,432.993 447.5,433.5C 447.5,434.5 447.5,435.5 447.5,436.5C 430.147,437.127 412.813,438.127 395.5,439.5C 389.518,439.244 383.685,438.91 378,438.5C 373.512,438.895 369.345,440.229 365.5,442.5C 344.886,442.035 324.219,441.535 303.5,441C 293.776,440.211 284.109,439.044 274.5,437.5C 270.298,436.911 266.132,437.578 262,439.5C 249.213,438.942 236.379,437.942 223.5,436.5C 223.5,434.833 223.5,433.167 223.5,431.5C 218.167,431.5 212.833,431.5 207.5,431.5C 207.5,429.833 207.5,428.167 207.5,426.5C 210.989,426.863 214.489,427.196 218,427.5C 221.861,427.146 225.361,425.98 228.5,424C 240.03,422.397 251.697,421.064 263.5,420C 276.853,419.501 290.186,419.501 303.5,420C 305.246,419.529 306.913,418.862 308.5,418C 304.469,417.154 303.469,414.987 305.5,411.5C 303.86,407.734 303.193,403.734 303.5,399.5 Z"/></g>
<g><path style="opacity:1" fill="#d7e9f3" d="M 395.5,423.5 C 403.302,425.317 411.302,426.817 419.5,428C 420.357,428.689 421.023,429.522 421.5,430.5C 418.372,431.375 415.372,432.542 412.5,434C 366.828,437 321.161,437 275.5,434C 270.809,433.228 266.142,432.395 261.5,431.5C 261.5,430.5 261.5,429.5 261.5,428.5C 278.797,425.838 296.131,423.838 313.5,422.5C 340.825,421.918 368.158,422.252 395.5,423.5 Z"/></g>
<g><path style="opacity:1" fill="#e7f1f6" d="M 313.5,422.5 C 296.131,423.838 278.797,425.838 261.5,428.5C 261.5,429.5 261.5,430.5 261.5,431.5C 266.142,432.395 270.809,433.228 275.5,434C 321.161,437 366.828,437 412.5,434C 415.372,432.542 418.372,431.375 421.5,430.5C 421.023,429.522 420.357,428.689 419.5,428C 411.302,426.817 403.302,425.317 395.5,423.5C 407.764,422.712 419.764,424.045 431.5,427.5C 431.5,429.5 431.5,431.5 431.5,433.5C 422.422,433.76 413.422,434.76 404.5,436.5C 402.9,436.449 401.4,436.116 400,435.5C 354.548,438.272 309.048,438.105 263.5,435C 255.339,434.209 247.339,433.042 239.5,431.5C 239.5,430.167 239.5,428.833 239.5,427.5C 263.919,423.402 288.586,421.735 313.5,422.5 Z"/></g>
<g><path style="opacity:1" fill="#a8cde6" d="M 367.5,431.5 C 367.5,431.833 367.5,432.167 367.5,432.5C 354.163,432.667 340.829,432.5 327.5,432C 323.63,431.895 319.963,431.062 316.5,429.5C 317.376,428.749 318.376,428.249 319.5,428C 335.518,427.262 351.518,427.429 367.5,428.5C 367.5,429.5 367.5,430.5 367.5,431.5 Z"/></g>
<g><path style="opacity:1" fill="#bcdaeb" d="M 367.5,431.5 C 367.5,430.5 367.5,429.5 367.5,428.5C 351.518,427.429 335.518,427.262 319.5,428C 318.376,428.249 317.376,428.749 316.5,429.5C 319.963,431.062 323.63,431.895 327.5,432C 340.829,432.5 354.163,432.667 367.5,432.5C 346.337,433.663 325.004,433.829 303.5,433C 297.842,432.26 292.175,431.594 286.5,431C 286.957,430.586 287.291,430.086 287.5,429.5C 291.112,428.453 294.779,427.62 298.5,427C 322.481,425.495 346.481,425.161 370.5,426C 373.833,426.667 377.167,427.333 380.5,428C 381.641,428.741 381.641,429.575 380.5,430.5C 376.217,431.492 371.884,431.826 367.5,431.5 Z"/></g>
<g><path style="opacity:1" fill="#f0f4f4" d="M -0.5,445.5 C 1.31455,446.63 3.31455,447.296 5.5,447.5C 6.96054,452.548 8.62721,457.548 10.5,462.5C 14.9155,463.894 16.5822,466.894 15.5,471.5C 18.9875,472.143 21.4875,474.143 23,477.5C 26.7371,486.643 31.2371,495.31 36.5,503.5C 40.7422,504.417 42.7422,507.083 42.5,511.5C 43.9778,511.238 45.3112,511.571 46.5,512.5C 46.8903,516.572 48.2237,520.239 50.5,523.5C 33.5,523.5 16.5,523.5 -0.5,523.5C -0.5,497.5 -0.5,471.5 -0.5,445.5 Z"/></g>
</svg>
